<svg xmlns="http://www.w3.org/2000/svg" width="1554" height="664" viewBox="0 0 1554 664"><title>Artboard 2 copy 23</title><rect x="7.53" y="7.5" width="1538.93" height="646.49" fill="#fff" stroke="#000" stroke-miterlimit="10" stroke-width="3"/><rect x="7" y="7" width="1540" height="127.8" stroke="#000" stroke-miterlimit="10" stroke-width="2"/><line x1="663.82" y1="333.02" x2="713.6" y2="333.02" fill="none" stroke="#000" stroke-miterlimit="10" stroke-width="3"/><path d="M837.54,191.34h4.77l5.3,8.52,5.29-8.52h4.77v20.14h-4.4V198.33l-5.66,8.6h-.12l-5.61-8.51v13.06h-4.34Z"/><path d="M681.55,208.54l2.61-3.13a9.27,9.27,0,0,0,6,2.44c1.82,0,2.91-.72,2.91-1.89v-.06c0-1.12-.69-1.7-4.06-2.56-4-1-6.67-2.16-6.67-6.16v-.06c0-3.65,2.94-6.06,7-6.06a11.68,11.68,0,0,1,7.48,2.56l-2.3,3.33a9.52,9.52,0,0,0-5.24-2c-1.7,0-2.59.77-2.59,1.75v.06c0,1.32.87,1.75,4.35,2.65,4.08,1.06,6.38,2.53,6.38,6v.05c0,4-3.05,6.25-7.39,6.25A12.79,12.79,0,0,1,681.55,208.54Z"/><line x1="822.06" y1="333.02" x2="871.84" y2="333.02" fill="none" stroke="#000" stroke-miterlimit="10" stroke-width="3"/><path d="M996.15,191.34h4.43v16.11h10v4H996.15Z"/><line x1="980.22" y1="333.02" x2="1030.01" y2="333.02" fill="none" stroke="#000" stroke-miterlimit="10" stroke-width="3"/><path d="M1160,191.34l-6.73,9.84,7,10.3h-5.17l-4.52-6.91-4.54,6.91h-5l7-10.24-6.73-9.9h5.18l4.2,6.53,4.28-6.53Z"/><path d="M1164.29,191.34h4.43v16.11h10v4h-14.47Z"/><line x1="1136.86" y1="333.02" x2="1186.64" y2="333.02" fill="none" stroke="#000" stroke-miterlimit="10" stroke-width="3"/><path d="M1287.43,208l6.7-5.5c2.51-2.07,3.48-3.16,3.48-4.83a2.47,2.47,0,0,0-2.7-2.61c-1.55,0-2.62.86-4.11,2.7l-3.11-2.5c2-2.71,3.91-4.17,7.51-4.17,4.17,0,6.93,2.44,6.93,6.21v.06c0,3.36-1.73,5-5.29,7.79l-3.28,2.53h8.77v3.83h-14.9Z"/><path d="M1324.53,191.34l-6.73,9.84,7,10.3h-5.18l-4.52-6.91-4.54,6.91h-5l7-10.24-6.74-9.9H1311l4.2,6.53,4.29-6.53Z"/><path d="M1328.84,191.34h4.43v16.11h10v4h-14.47Z"/><line x1="1291.19" y1="333.02" x2="1340.97" y2="333.02" fill="none" stroke="#000" stroke-miterlimit="10" stroke-width="3"/><line x1="1443.89" y1="333.02" x2="1493.67" y2="333.02" fill="none" stroke="#000" stroke-miterlimit="10" stroke-width="3"/><path d="M1442.66,208.34l3-2.9a6.16,6.16,0,0,0,4.86,2.42c1.67,0,2.85-1,2.85-2.45v-.06c0-1.64-1.47-2.56-3.94-2.56h-1.85l-.69-2.82,4.81-4.83h-7.91v-3.79h13.6v3.33l-5.09,4.86c2.73.46,5.41,1.9,5.41,5.64v.06c0,3.79-2.76,6.58-7.25,6.58A9.74,9.74,0,0,1,1442.66,208.34Z"/><path d="M1480,191.35l-6.73,9.83,7,10.3h-5.17l-4.52-6.9-4.54,6.9h-5l7-10.24-6.73-9.89h5.18l4.2,6.53,4.28-6.53Z"/><path d="M1484.32,191.35h4.43v16.1h10v4h-14.47Z"/><line x1="1547" y1="265.02" x2="458.56" y2="265.02" fill="none" stroke="#000" stroke-miterlimit="10" stroke-width="2"/><line x1="1547" y1="395.03" x2="458.56" y2="395.03" fill="none" stroke="#000" stroke-miterlimit="10" stroke-width="2"/><line x1="1547" y1="526.03" x2="458.56" y2="526.03" fill="none" stroke="#000" stroke-miterlimit="10" stroke-width="2"/><path d="M477.92,335.87l2.29-2.75a8.13,8.13,0,0,0,5.28,2.15c1.58,0,2.54-.63,2.54-1.67v-.05c0-1-.6-1.49-3.55-2.24-3.56-.91-5.86-1.89-5.86-5.4v-.05c0-3.2,2.58-5.32,6.18-5.32a10.19,10.19,0,0,1,6.56,2.24l-2,2.93a8.23,8.23,0,0,0-4.59-1.74c-1.48,0-2.27.68-2.27,1.54v.05c0,1.16.76,1.53,3.81,2.32,3.58.93,5.6,2.22,5.6,5.29v.05c0,3.51-2.67,5.48-6.48,5.48A11.26,11.26,0,0,1,477.92,335.87Z"/><path d="M495.9,320.79h3.88v14.12h8.8v3.54H495.9Z"/><path d="M512.14,320.79h13.32v3.46H516v3.58h8.32v3.45H516V335h9.58v3.46H512.14Z"/><path d="M529.66,320.79H543v3.46h-9.46v3.58h8.33v3.45h-8.33V335h9.59v3.46H529.66Z"/><path d="M545.68,320.79H550l4.62,12.43,4.62-12.43h4.18l-7.14,17.78h-3.43Z"/><path d="M566.73,320.79h13.32v3.46h-9.46v3.58h8.33v3.45h-8.33V335h9.59v3.46H566.73Z"/><path d="M583.05,335.87l2.29-2.75a8.13,8.13,0,0,0,5.27,2.15c1.59,0,2.55-.63,2.55-1.67v-.05c0-1-.6-1.49-3.56-2.24-3.55-.91-5.85-1.89-5.85-5.4v-.05c0-3.2,2.58-5.32,6.18-5.32a10.21,10.21,0,0,1,6.56,2.24l-2,2.93a8.23,8.23,0,0,0-4.59-1.74c-1.49,0-2.27.68-2.27,1.54v.05c0,1.16.76,1.53,3.81,2.32,3.58.93,5.6,2.22,5.6,5.29v.05c0,3.51-2.67,5.48-6.48,5.48A11.24,11.24,0,0,1,583.05,335.87Z"/><path d="M494.33,458.55v-.05a9,9,0,0,1,9.21-9.13,9.12,9.12,0,0,1,7,2.72L508,454.94a6.53,6.53,0,0,0-4.51-2,5.23,5.23,0,0,0-5.12,5.5v.05a5.24,5.24,0,0,0,5.12,5.55,6.39,6.39,0,0,0,4.64-2.07l2.47,2.5a9,9,0,0,1-7.24,3.15A8.91,8.91,0,0,1,494.33,458.55Z"/><path d="M514.36,449.67h3.88v7h7.16v-7h3.89v17.66H525.4v-7.09h-7.16v7.09h-3.88Z"/><path d="M534.15,449.67h13.32v3.46H538v3.58h8.32v3.46H538v3.7h9.59v3.46H534.15Z"/><path d="M550.47,464.76l2.29-2.75a8.12,8.12,0,0,0,5.27,2.14c1.59,0,2.55-.63,2.55-1.66v-.05c0-1-.6-1.49-3.56-2.25-3.55-.91-5.85-1.89-5.85-5.4v-.05c0-3.2,2.58-5.32,6.18-5.32a10.22,10.22,0,0,1,6.56,2.25l-2,2.92a8.3,8.3,0,0,0-4.59-1.74c-1.49,0-2.27.68-2.27,1.54v.05c0,1.16.76,1.54,3.81,2.32,3.58.93,5.6,2.22,5.6,5.3v.05c0,3.5-2.67,5.47-6.48,5.47A11.21,11.21,0,0,1,550.47,464.76Z"/><path d="M572.18,453.25h-5.37v-3.58h14.63v3.58h-5.38v14.08h-3.88Z"/><line x1="613.63" y1="122.29" x2="613.63" y2="651.76" fill="none" stroke="#000" stroke-miterlimit="10" stroke-width="2"/><line x1="769.13" y1="120.96" x2="769.13" y2="651.76" fill="none" stroke="#000" stroke-miterlimit="10" stroke-width="2"/><line x1="458.99" y1="265" x2="458.13" y2="651.76" fill="none" stroke="#000" stroke-miterlimit="10" stroke-width="2"/><line x1="1080.14" y1="120.96" x2="1080.14" y2="651.76" fill="none" stroke="#000" stroke-miterlimit="10" stroke-width="2"/><line x1="1235.64" y1="120.96" x2="1235.64" y2="651.76" fill="none" stroke="#000" stroke-miterlimit="10" stroke-width="2"/><line x1="1391.14" y1="122.03" x2="1391.14" y2="652.02" fill="none" stroke="#000" stroke-miterlimit="10" stroke-width="2"/><path d="M825.63,311.54l5.07-4.31c2-1.72,2.75-2.64,2.75-4a2.2,2.2,0,0,0-2.38-2.28c-1.34,0-2.26.73-3.38,2.2l-1.84-1.45c1.4-2,2.79-3.06,5.41-3.06,2.88,0,4.85,1.76,4.85,4.38v.05c0,2.31-1.22,3.57-3.82,5.69l-3,2.52h7v2.26H825.63Z"/><path d="M838.38,311.24l1.81-1.68a4.78,4.78,0,0,0,3.86,1.93,2.3,2.3,0,0,0,2.54-2.22v0c0-1.45-1.32-2.27-3.38-2.27H842l-.42-1.62,4-4.22H839.2v-2.24h9.72v1.93l-4.09,4.2c2.22.27,4.32,1.4,4.32,4.11v0c0,2.71-2.08,4.67-5.14,4.67A7,7,0,0,1,838.38,311.24Z"/><path d="M854.2,298.37h2.72v2.42H854.2Zm.1,4.12h2.54v11.08H854.3Z"/><path d="M860.16,302.49h2.54v1.7a4,4,0,0,1,3.46-1.93c2.5,0,4,1.68,4,4.24v7.07h-2.54v-6.3c0-1.72-.86-2.7-2.37-2.7a2.46,2.46,0,0,0-2.5,2.75v6.25h-2.54Z"/><path d="M820,363.76l1.59-1.86a5.61,5.61,0,0,0,3.78,1.76c1.76,0,2.92-1,2.92-2.54v0c0-1.49-1.26-2.44-3-2.44a6.32,6.32,0,0,0-2.7.65l-1.56-1,.42-7.2h8.8v2.29h-6.57l-.23,3.44a6.26,6.26,0,0,1,2.33-.42c2.85,0,5.12,1.51,5.12,4.62V361c0,3-2.2,5-5.46,5A7.48,7.48,0,0,1,820,363.76Z"/><path d="M833.06,361.75v0a3.69,3.69,0,0,1,2.64-3.57,3.53,3.53,0,0,1-2.14-3.28v0c0-2.25,2.16-4,5.1-4s5.11,1.7,5.11,4v0a3.54,3.54,0,0,1-2.15,3.28c1.62.73,2.65,1.78,2.65,3.52v0c0,2.62-2.39,4.26-5.61,4.26S833.06,364.29,833.06,361.75Zm8.69-.15v0c0-1.34-1.34-2.23-3.09-2.23s-3.06.89-3.06,2.23v0c0,1.2,1.13,2.21,3.06,2.21S841.75,362.82,841.75,361.6Zm-.46-6.49v0c0-1.13-1-2.06-2.63-2.06s-2.62.93-2.62,2v0a2.67,2.67,0,0,0,5.25,0Z"/><path d="M846.27,360.28v0a5.72,5.72,0,0,1,5.77-5.8,5.61,5.61,0,0,1,4.43,1.91l-1.59,1.7a3.73,3.73,0,0,0-2.86-1.38,3.34,3.34,0,0,0-3.21,3.53v0a3.35,3.35,0,0,0,3.31,3.55,3.89,3.89,0,0,0,2.88-1.37l1.53,1.51A5.59,5.59,0,0,1,852,366,5.65,5.65,0,0,1,846.27,360.28Z"/><path d="M858.87,354.67h2.54v1.68a4,4,0,0,1,3.38-1.91,3.54,3.54,0,0,1,3.32,1.95,4.46,4.46,0,0,1,3.73-1.95c2.42,0,3.89,1.53,3.89,4.24v7.08h-2.54v-6.3c0-1.76-.82-2.71-2.25-2.71s-2.37,1-2.37,2.75v6.26H866v-6.32c0-1.72-.84-2.69-2.25-2.69s-2.37,1.05-2.37,2.75v6.26h-2.54Z"/><path d="M971.3,311.54l5.06-4.31c2-1.72,2.75-2.64,2.75-4a2.2,2.2,0,0,0-2.37-2.28c-1.35,0-2.27.73-3.38,2.2l-1.85-1.45c1.41-2,2.79-3.06,5.42-3.06,2.87,0,4.85,1.76,4.85,4.38v.05c0,2.31-1.22,3.57-3.82,5.69l-3,2.52h7v2.26H971.3Z"/><path d="M984.05,311.24l1.8-1.68a4.79,4.79,0,0,0,3.86,1.93,2.31,2.31,0,0,0,2.55-2.22v0c0-1.45-1.33-2.27-3.38-2.27h-1.2l-.42-1.62,4-4.22h-6.36v-2.24h9.72v1.93l-4.1,4.2c2.23.27,4.33,1.4,4.33,4.11v0c0,2.71-2.08,4.67-5.15,4.67A7,7,0,0,1,984.05,311.24Z"/><path d="M997.55,310.68h2.79v2.89h-2.79Z"/><path d="M1002.76,311.58l1.59-1.87a5.63,5.63,0,0,0,3.78,1.76c1.77,0,2.92-1,2.92-2.54v0c0-1.49-1.26-2.43-3-2.43a6.22,6.22,0,0,0-2.71.65l-1.56-1,.42-7.2h8.8v2.28h-6.57l-.23,3.45a6.26,6.26,0,0,1,2.33-.42c2.85,0,5.12,1.51,5.12,4.62v0c0,3-2.2,5-5.46,5A7.54,7.54,0,0,1,1002.76,311.58Z"/><path d="M1018.59,298.37h2.73v2.42h-2.73Zm.11,4.12h2.54v11.08h-2.54Z"/><path d="M1024.55,302.49h2.55v1.7a4,4,0,0,1,3.46-1.93c2.5,0,4,1.68,4,4.24v7.07H1032v-6.3c0-1.72-.86-2.7-2.38-2.7a2.46,2.46,0,0,0-2.49,2.75v6.25h-2.55Z"/><path d="M975.65,364.46c-1.12-1.12-1.79-2.65-1.79-5.61v0c0-4.49,2.14-8,6.3-8a6.65,6.65,0,0,1,4.49,1.64l-1.38,2a4.83,4.83,0,0,0-3.19-1.28c-2.56,0-3.49,2.67-3.53,4.68a4.6,4.6,0,0,1,3.53-1.49c2.83,0,5.12,1.68,5.12,4.62v0c0,2.92-2.37,5-5.46,5A5.48,5.48,0,0,1,975.65,364.46Zm7-3.34v0c0-1.47-1.18-2.56-3-2.56a2.71,2.71,0,0,0-3,2.58v0c0,1.49,1.22,2.62,3,2.62A2.66,2.66,0,0,0,982.62,361.12Z"/><path d="M987.64,358.45v0c0-4.2,2.56-7.6,6.42-7.6s6.39,3.36,6.39,7.56v0c0,4.2-2.57,7.6-6.43,7.6S987.64,362.65,987.64,358.45Zm10.14,0v0c0-2.9-1.49-5.27-3.76-5.27s-3.72,2.31-3.72,5.23v0c0,2.9,1.47,5.27,3.76,5.27S997.78,361.33,997.78,358.45Z"/><path d="M1002.63,360.28v0a5.73,5.73,0,0,1,5.78-5.8,5.62,5.62,0,0,1,4.43,1.91l-1.6,1.7a3.73,3.73,0,0,0-2.86-1.38,3.34,3.34,0,0,0-3.21,3.53v0a3.36,3.36,0,0,0,3.32,3.55,3.89,3.89,0,0,0,2.88-1.37l1.53,1.51a5.6,5.6,0,0,1-4.54,2.08A5.66,5.66,0,0,1,1002.63,360.28Z"/><path d="M1015.23,354.67h2.54v1.68a4,4,0,0,1,3.38-1.91,3.53,3.53,0,0,1,3.32,1.95,4.47,4.47,0,0,1,3.74-1.95c2.41,0,3.88,1.53,3.88,4.24v7.08h-2.54v-6.3c0-1.76-.82-2.71-2.25-2.71s-2.37,1-2.37,2.75v6.26h-2.54v-6.32c0-1.72-.84-2.69-2.25-2.69s-2.37,1.05-2.37,2.75v6.26h-2.54Z"/><path d="M1137.46,311.54l5.06-4.31c2-1.72,2.75-2.64,2.75-4a2.2,2.2,0,0,0-2.37-2.28c-1.34,0-2.27.73-3.38,2.2l-1.85-1.45c1.41-2,2.79-3.06,5.42-3.06,2.88,0,4.85,1.76,4.85,4.38v.05c0,2.31-1.22,3.57-3.82,5.69l-3,2.52h7v2.26h-10.63Z"/><path d="M1157.54,310.28h-7.42l-.48-1.85,8.17-9.66h2.2v9.39h2.1v2.12H1160v3.29h-2.47Zm0-2.12v-5.82l-4.83,5.82Z"/><path d="M1167,298.37h2.73v2.42H1167Zm.1,4.12h2.54v11.08h-2.54Z"/><path d="M1172.91,302.49h2.54v1.7a4,4,0,0,1,3.47-1.93c2.49,0,3.94,1.68,3.94,4.24v7.07h-2.54v-6.3c0-1.72-.86-2.7-2.37-2.7a2.46,2.46,0,0,0-2.5,2.75v6.25h-2.54Z"/><path d="M1136.49,364.46c-1.12-1.12-1.79-2.65-1.79-5.61v0c0-4.49,2.14-8,6.3-8a6.65,6.65,0,0,1,4.49,1.64l-1.38,2a4.83,4.83,0,0,0-3.19-1.28c-2.57,0-3.49,2.67-3.53,4.68a4.6,4.6,0,0,1,3.53-1.49c2.83,0,5.12,1.68,5.12,4.62v0c0,2.92-2.37,5-5.46,5A5.47,5.47,0,0,1,1136.49,364.46Zm7-3.34v0c0-1.47-1.18-2.56-3-2.56a2.71,2.71,0,0,0-3,2.58v0c0,1.49,1.22,2.62,3,2.62A2.66,2.66,0,0,0,1143.46,361.12Z"/><path d="M1150.74,353.58l-2.64.74-.55-2.1,4-1.26h1.79v14.8h-2.57Z"/><path d="M1156.31,360.28v0a5.73,5.73,0,0,1,5.77-5.8,5.61,5.61,0,0,1,4.43,1.91l-1.59,1.7a3.73,3.73,0,0,0-2.86-1.38,3.34,3.34,0,0,0-3.21,3.53v0a3.36,3.36,0,0,0,3.32,3.55,3.85,3.85,0,0,0,2.87-1.37l1.54,1.51A5.6,5.6,0,0,1,1162,366,5.66,5.66,0,0,1,1156.31,360.28Z"/><path d="M1168.91,354.67h2.54v1.68a4,4,0,0,1,3.38-1.91,3.53,3.53,0,0,1,3.32,1.95,4.47,4.47,0,0,1,3.73-1.95c2.42,0,3.89,1.53,3.89,4.24v7.08h-2.54v-6.3c0-1.76-.82-2.71-2.25-2.71s-2.37,1-2.37,2.75v6.26h-2.54v-6.32c0-1.72-.84-2.69-2.25-2.69s-2.37,1.05-2.37,2.75v6.26h-2.54Z"/><path d="M1283.33,311.54l5.06-4.31c2-1.72,2.75-2.64,2.75-4a2.2,2.2,0,0,0-2.38-2.28c-1.34,0-2.26.73-3.38,2.2l-1.84-1.45c1.4-2,2.79-3.06,5.41-3.06,2.88,0,4.85,1.76,4.85,4.38v.05c0,2.31-1.22,3.57-3.82,5.69l-3,2.52h7v2.26h-10.62Z"/><path d="M1303.4,310.28H1296l-.48-1.85,8.16-9.66h2.21v9.39h2.1v2.12h-2.1v3.29h-2.48Zm0-2.12v-5.82l-4.83,5.82Z"/><path d="M1310.5,310.68h2.79v2.89h-2.79Z"/><path d="M1315.71,311.58l1.59-1.87a5.63,5.63,0,0,0,3.78,1.76c1.77,0,2.92-1,2.92-2.54v0c0-1.49-1.26-2.43-3-2.43a6.22,6.22,0,0,0-2.71.65l-1.56-1,.42-7.2h8.8v2.28h-6.57l-.23,3.45a6.26,6.26,0,0,1,2.33-.42c2.85,0,5.12,1.51,5.12,4.62v0c0,3-2.2,5-5.46,5A7.54,7.54,0,0,1,1315.71,311.58Z"/><path d="M1331.54,298.37h2.73v2.42h-2.73Zm.11,4.12h2.54v11.08h-2.54Z"/><path d="M1337.5,302.49H1340v1.7a4,4,0,0,1,3.47-1.93c2.5,0,4,1.68,4,4.24v7.07h-2.54v-6.3c0-1.72-.86-2.7-2.38-2.7a2.46,2.46,0,0,0-2.5,2.75v6.25h-2.54Z"/><path d="M1289.3,364.46c-1.11-1.12-1.78-2.65-1.78-5.61v0c0-4.49,2.14-8,6.29-8a6.67,6.67,0,0,1,4.5,1.64l-1.39,2a4.83,4.83,0,0,0-3.19-1.28c-2.56,0-3.49,2.67-3.53,4.68a4.62,4.62,0,0,1,3.53-1.49c2.83,0,5.12,1.68,5.12,4.62v0c0,2.92-2.37,5-5.46,5A5.5,5.5,0,0,1,1289.3,364.46Zm7-3.34v0c0-1.47-1.18-2.56-3-2.56a2.7,2.7,0,0,0-3,2.58v0a2.74,2.74,0,0,0,3,2.62A2.65,2.65,0,0,0,1296.27,361.12Z"/><path d="M1301.12,363.72l5.06-4.3c2-1.72,2.75-2.65,2.75-4a2.2,2.2,0,0,0-2.37-2.29c-1.34,0-2.27.74-3.38,2.21l-1.85-1.45c1.41-2,2.79-3.07,5.42-3.07,2.88,0,4.85,1.77,4.85,4.39v0c0,2.31-1.22,3.57-3.82,5.69l-3,2.52h7v2.27h-10.63Z"/><path d="M1314,360.28v0a5.73,5.73,0,0,1,5.78-5.8,5.61,5.61,0,0,1,4.43,1.91l-1.6,1.7a3.69,3.69,0,0,0-2.85-1.38,3.35,3.35,0,0,0-3.22,3.53v0a3.36,3.36,0,0,0,3.32,3.55,3.89,3.89,0,0,0,2.88-1.37l1.53,1.51a5.59,5.59,0,0,1-4.53,2.08A5.66,5.66,0,0,1,1314,360.28Z"/><path d="M1326.55,354.67h2.54v1.68a4,4,0,0,1,3.38-1.91,3.53,3.53,0,0,1,3.32,1.95,4.47,4.47,0,0,1,3.74-1.95c2.41,0,3.88,1.53,3.88,4.24v7.08h-2.54v-6.3c0-1.76-.82-2.71-2.24-2.71s-2.38,1-2.38,2.75v6.26h-2.54v-6.32c0-1.72-.84-2.69-2.24-2.69s-2.38,1.05-2.38,2.75v6.26h-2.54Z"/><path d="M1448.61,311.54l5.06-4.31c2-1.72,2.75-2.64,2.75-4a2.2,2.2,0,0,0-2.37-2.28c-1.34,0-2.27.73-3.38,2.2l-1.85-1.45c1.41-2,2.8-3.06,5.42-3.06,2.88,0,4.85,1.76,4.85,4.38v.05c0,2.31-1.22,3.57-3.82,5.69l-3,2.52h7v2.26h-10.63Z"/><path d="M1461.45,311.58l1.59-1.87a5.63,5.63,0,0,0,3.78,1.76c1.76,0,2.92-1,2.92-2.54v0c0-1.49-1.26-2.43-3-2.43a6.18,6.18,0,0,0-2.7.65l-1.56-1,.42-7.2h8.8v2.28h-6.57l-.23,3.45a6.26,6.26,0,0,1,2.33-.42c2.85,0,5.12,1.51,5.12,4.62v0c0,3-2.2,5-5.46,5A7.52,7.52,0,0,1,1461.45,311.58Z"/><path d="M1477.28,298.37H1480v2.42h-2.73Zm.1,4.12h2.54v11.08h-2.54Z"/><path d="M1483.24,302.49h2.54v1.7a4,4,0,0,1,3.47-1.93c2.5,0,3.94,1.68,3.94,4.24v7.07h-2.54v-6.3c0-1.72-.86-2.7-2.37-2.7a2.46,2.46,0,0,0-2.5,2.75v6.25h-2.54Z"/><path d="M1444.09,364.46c-1.12-1.12-1.79-2.65-1.79-5.61v0c0-4.49,2.15-8,6.3-8a6.69,6.69,0,0,1,4.5,1.64l-1.39,2a4.83,4.83,0,0,0-3.19-1.28c-2.56,0-3.49,2.67-3.53,4.68a4.6,4.6,0,0,1,3.53-1.49c2.83,0,5.12,1.68,5.12,4.62v0c0,2.92-2.37,5-5.46,5A5.48,5.48,0,0,1,1444.09,364.46Zm7-3.34v0c0-1.47-1.18-2.56-3-2.56a2.71,2.71,0,0,0-3,2.58v0c0,1.49,1.22,2.62,3,2.62A2.65,2.65,0,0,0,1451.06,361.12Z"/><path d="M1463.53,362.46h-7.41l-.48-1.84,8.16-9.66H1466v9.38h2.1v2.12H1466v3.3h-2.48Zm0-2.12v-5.81l-4.83,5.81Z"/><path d="M1470.19,360.28v0a5.73,5.73,0,0,1,5.77-5.8,5.59,5.59,0,0,1,4.43,1.91l-1.59,1.7a3.73,3.73,0,0,0-2.86-1.38,3.34,3.34,0,0,0-3.21,3.53v0a3.36,3.36,0,0,0,3.32,3.55,3.89,3.89,0,0,0,2.88-1.37l1.53,1.51a5.6,5.6,0,0,1-4.54,2.08A5.66,5.66,0,0,1,1470.19,360.28Z"/><path d="M1482.79,354.67h2.54v1.68a4,4,0,0,1,3.38-1.91,3.53,3.53,0,0,1,3.32,1.95,4.47,4.47,0,0,1,3.74-1.95c2.41,0,3.88,1.53,3.88,4.24v7.08h-2.54v-6.3c0-1.76-.82-2.71-2.25-2.71s-2.37,1-2.37,2.75v6.26H1490v-6.32c0-1.72-.84-2.69-2.25-2.69s-2.37,1.05-2.37,2.75v6.26h-2.54Z"/><line x1="924.64" y1="121.44" x2="924.64" y2="655.59" fill="none" stroke="#000" stroke-miterlimit="10" stroke-width="2"/><path d="M658.43,311.54l5.06-4.31c2-1.72,2.75-2.64,2.75-4a2.2,2.2,0,0,0-2.37-2.28c-1.35,0-2.27.73-3.38,2.2l-1.85-1.45c1.41-2,2.79-3.06,5.42-3.06,2.87,0,4.85,1.76,4.85,4.38v.05c0,2.31-1.22,3.57-3.83,5.69l-3,2.52h7v2.26H658.43Z"/><path d="M671.3,311.54l5.06-4.31c2-1.72,2.75-2.64,2.75-4a2.2,2.2,0,0,0-2.37-2.28c-1.34,0-2.27.73-3.38,2.2l-1.85-1.45c1.41-2,2.79-3.06,5.42-3.06,2.88,0,4.85,1.76,4.85,4.38v.05c0,2.31-1.22,3.57-3.82,5.69l-3,2.52h7v2.26H671.3Z"/><path d="M684.57,310.68h2.8v2.89h-2.8Z"/><path d="M689.78,311.58l1.6-1.87a5.59,5.59,0,0,0,3.78,1.76c1.76,0,2.92-1,2.92-2.54v0c0-1.49-1.26-2.43-3.05-2.43a6.26,6.26,0,0,0-2.71.65l-1.55-1,.42-7.2H700v2.28h-6.58l-.23,3.45a6.34,6.34,0,0,1,2.33-.42c2.86,0,5.13,1.51,5.13,4.62v0c0,3-2.21,5-5.46,5A7.56,7.56,0,0,1,689.78,311.58Z"/><path d="M705.62,298.37h2.72v2.42h-2.72Zm.1,4.12h2.54v11.08h-2.54Z"/><path d="M711.58,302.49h2.54v1.7a4,4,0,0,1,3.46-1.93c2.5,0,3.95,1.68,3.95,4.24v7.07H719v-6.3c0-1.72-.86-2.7-2.37-2.7a2.46,2.46,0,0,0-2.5,2.75v6.25h-2.54Z"/><path d="M662.6,363.76l1.59-1.86a5.63,5.63,0,0,0,3.78,1.76c1.77,0,2.92-1,2.92-2.54v0c0-1.49-1.26-2.44-3-2.44a6.37,6.37,0,0,0-2.71.65l-1.56-1,.42-7.2h8.8v2.29h-6.57l-.23,3.44a6.26,6.26,0,0,1,2.33-.42c2.86,0,5.12,1.51,5.12,4.62V361c0,3-2.2,5-5.46,5A7.5,7.5,0,0,1,662.6,363.76Z"/><path d="M682.88,353.33h-7.39v-2.27h10.33V353l-6.61,12.75h-2.92Z"/><path d="M687.84,360.28v0a5.73,5.73,0,0,1,5.77-5.8,5.61,5.61,0,0,1,4.43,1.91l-1.59,1.7a3.73,3.73,0,0,0-2.86-1.38,3.34,3.34,0,0,0-3.21,3.53v0a3.36,3.36,0,0,0,3.32,3.55,3.87,3.87,0,0,0,2.87-1.37l1.54,1.51a5.81,5.81,0,0,1-10.27-3.65Z"/><path d="M700.44,354.67H703v1.68a4,4,0,0,1,3.38-1.91,3.53,3.53,0,0,1,3.32,1.95,4.47,4.47,0,0,1,3.74-1.95c2.41,0,3.88,1.53,3.88,4.24v7.08h-2.54v-6.3c0-1.76-.82-2.71-2.25-2.71s-2.37,1-2.37,2.75v6.26H707.6v-6.32c0-1.72-.84-2.69-2.25-2.69S703,357.8,703,359.5v6.26h-2.54Z"/><line x1="663.82" y1="463.31" x2="713.6" y2="463.31" fill="none" stroke="#000" stroke-miterlimit="10" stroke-width="3"/><line x1="822.06" y1="463.31" x2="871.84" y2="463.31" fill="none" stroke="#000" stroke-miterlimit="10" stroke-width="3"/><line x1="980.22" y1="463.31" x2="1030.01" y2="463.31" fill="none" stroke="#000" stroke-miterlimit="10" stroke-width="3"/><line x1="1136.86" y1="463.31" x2="1186.64" y2="463.31" fill="none" stroke="#000" stroke-miterlimit="10" stroke-width="3"/><line x1="1291.19" y1="463.31" x2="1340.97" y2="463.31" fill="none" stroke="#000" stroke-miterlimit="10" stroke-width="3"/><line x1="1443.89" y1="463.31" x2="1493.67" y2="463.31" fill="none" stroke="#000" stroke-miterlimit="10" stroke-width="3"/><path d="M824.52,441.82l5.06-4.3c2-1.72,2.75-2.65,2.75-4a2.2,2.2,0,0,0-2.37-2.29c-1.34,0-2.27.74-3.38,2.21L824.73,432c1.41-2,2.79-3.07,5.42-3.07,2.88,0,4.85,1.77,4.85,4.39v0c0,2.31-1.22,3.57-3.82,5.69l-3,2.52h7v2.27H824.52Z"/><path d="M837.56,436.55v0c0-4.2,2.56-7.6,6.43-7.6s6.38,3.36,6.38,7.56v0c0,4.2-2.56,7.6-6.42,7.6S837.56,440.75,837.56,436.55Zm10.14,0v0c0-2.9-1.49-5.27-3.75-5.27s-3.72,2.31-3.72,5.23v0c0,2.9,1.47,5.27,3.76,5.27S847.7,439.43,847.7,436.55Z"/><path d="M855.31,428.66H858v2.41h-2.73Zm.1,4.11H858v11.09h-2.54Z"/><path d="M861.27,432.77h2.54v1.7a4,4,0,0,1,3.47-1.93c2.5,0,3.94,1.68,3.94,4.24v7.08h-2.54v-6.3c0-1.72-.86-2.71-2.37-2.71a2.47,2.47,0,0,0-2.5,2.75v6.26h-2.54Z"/><path d="M820.49,494.05l1.6-1.87a5.61,5.61,0,0,0,3.78,1.77c1.76,0,2.91-1,2.91-2.55v0c0-1.49-1.26-2.43-3-2.43a6.26,6.26,0,0,0-2.71.65l-1.55-1,.42-7.2h8.8v2.29h-6.58l-.23,3.44a6.3,6.3,0,0,1,2.33-.42c2.86,0,5.13,1.51,5.13,4.62v0c0,3-2.21,5-5.46,5A7.56,7.56,0,0,1,820.49,494.05Z"/><path d="M840.78,483.62h-7.4v-2.27h10.33v1.95L837.1,496h-2.92Z"/><path d="M845.73,490.56v0a5.72,5.72,0,0,1,5.78-5.79,5.59,5.59,0,0,1,4.43,1.91l-1.6,1.7a3.73,3.73,0,0,0-2.86-1.39,3.35,3.35,0,0,0-3.21,3.53v0a3.36,3.36,0,0,0,3.32,3.55,3.88,3.88,0,0,0,2.88-1.36l1.53,1.51a5.6,5.6,0,0,1-4.54,2.08A5.67,5.67,0,0,1,845.73,490.56Z"/><path d="M858.33,485h2.54v1.68a4,4,0,0,1,3.38-1.91,3.51,3.51,0,0,1,3.32,1.95,4.45,4.45,0,0,1,3.74-1.95c2.41,0,3.88,1.53,3.88,4.24V496h-2.54v-6.29c0-1.77-.82-2.71-2.25-2.71s-2.37,1-2.37,2.75V496h-2.54v-6.32c0-1.72-.84-2.68-2.24-2.68s-2.38,1-2.38,2.75V496h-2.54Z"/><path d="M970.4,441.82l5.06-4.3c2-1.72,2.75-2.65,2.75-4a2.21,2.21,0,0,0-2.38-2.29c-1.34,0-2.26.74-3.37,2.21L970.61,432c1.4-2,2.79-3.07,5.41-3.07,2.88,0,4.85,1.77,4.85,4.39v0c0,2.31-1.21,3.57-3.82,5.69l-3,2.52h7v2.27H970.4Z"/><path d="M983.44,436.55v0c0-4.2,2.56-7.6,6.42-7.6s6.39,3.36,6.39,7.56v0c0,4.2-2.57,7.6-6.43,7.6S983.44,440.75,983.44,436.55Zm10.14,0v0c0-2.9-1.49-5.27-3.76-5.27s-3.72,2.31-3.72,5.23v0c0,2.9,1.47,5.27,3.76,5.27S993.58,439.43,993.58,436.55Z"/><path d="M998.45,441h2.8v2.9h-2.8Z"/><path d="M1003.66,441.87l1.6-1.87a5.59,5.59,0,0,0,3.78,1.76c1.76,0,2.91-1,2.91-2.54v0c0-1.49-1.26-2.44-3-2.44a6.4,6.4,0,0,0-2.71.65l-1.55-1,.42-7.2h8.8v2.29h-6.58l-.23,3.44a6.3,6.3,0,0,1,2.33-.42c2.86,0,5.13,1.52,5.13,4.62v0c0,3-2.21,5-5.46,5A7.55,7.55,0,0,1,1003.66,441.87Z"/><path d="M1019.49,428.66h2.73v2.41h-2.73Zm.11,4.11h2.54v11.09h-2.54Z"/><path d="M1025.46,432.77H1028v1.7a4,4,0,0,1,3.46-1.93c2.5,0,4,1.68,4,4.24v7.08h-2.54v-6.3c0-1.72-.86-2.71-2.37-2.71a2.47,2.47,0,0,0-2.5,2.75v6.26h-2.54Z"/><path d="M975.65,494.74c-1.12-1.11-1.79-2.64-1.79-5.6v0c0-4.5,2.14-8,6.3-8a6.69,6.69,0,0,1,4.49,1.63l-1.38,2a4.83,4.83,0,0,0-3.19-1.28c-2.56,0-3.49,2.66-3.53,4.68a4.6,4.6,0,0,1,3.53-1.49c2.83,0,5.12,1.68,5.12,4.62v0c0,2.92-2.37,5-5.46,5A5.45,5.45,0,0,1,975.65,494.74Zm7-3.34v0c0-1.47-1.18-2.56-3-2.56a2.72,2.72,0,0,0-3,2.58v.05c0,1.49,1.22,2.62,3,2.62A2.66,2.66,0,0,0,982.62,491.4Z"/><path d="M987.64,488.74v0c0-4.2,2.56-7.6,6.42-7.6s6.39,3.36,6.39,7.55v.05c0,4.2-2.57,7.6-6.43,7.6S987.64,492.94,987.64,488.74Zm10.14,0v0c0-2.9-1.49-5.27-3.76-5.27s-3.72,2.31-3.72,5.22v.05c0,2.89,1.47,5.27,3.76,5.27S997.78,491.62,997.78,488.74Z"/><path d="M1002.63,490.56v0a5.72,5.72,0,0,1,5.78-5.79,5.59,5.59,0,0,1,4.43,1.91l-1.6,1.7a3.73,3.73,0,0,0-2.86-1.39,3.35,3.35,0,0,0-3.21,3.53v0a3.36,3.36,0,0,0,3.32,3.55,3.88,3.88,0,0,0,2.88-1.36l1.53,1.51a5.6,5.6,0,0,1-4.54,2.08A5.67,5.67,0,0,1,1002.63,490.56Z"/><path d="M1015.23,485h2.54v1.68a4,4,0,0,1,3.38-1.91,3.51,3.51,0,0,1,3.32,1.95,4.45,4.45,0,0,1,3.74-1.95c2.41,0,3.88,1.53,3.88,4.24V496h-2.54v-6.29c0-1.77-.82-2.71-2.25-2.71s-2.37,1-2.37,2.75V496h-2.54v-6.32c0-1.72-.84-2.68-2.25-2.68s-2.37,1-2.37,2.75V496h-2.54Z"/><path d="M1140.26,441.82l5.06-4.3c2-1.72,2.75-2.65,2.75-4a2.21,2.21,0,0,0-2.38-2.29c-1.34,0-2.26.74-3.38,2.21l-1.85-1.45c1.41-2,2.8-3.07,5.42-3.07,2.88,0,4.85,1.77,4.85,4.39v0c0,2.31-1.22,3.57-3.82,5.69l-3,2.52h7v2.27h-10.62Z"/><path d="M1155.84,431.68l-2.65.74-.54-2.1,4-1.26h1.79v14.8h-2.56Z"/><path d="M1164.15,428.66h2.73v2.41h-2.73Zm.11,4.11h2.54v11.09h-2.54Z"/><path d="M1170.12,432.77h2.54v1.7a4,4,0,0,1,3.46-1.93c2.5,0,4,1.68,4,4.24v7.08h-2.54v-6.3c0-1.72-.86-2.71-2.37-2.71a2.47,2.47,0,0,0-2.5,2.75v6.26h-2.54Z"/><path d="M1134.07,494.74c-1.11-1.11-1.78-2.64-1.78-5.6v0c0-4.5,2.14-8,6.29-8a6.7,6.7,0,0,1,4.5,1.63l-1.39,2a4.83,4.83,0,0,0-3.19-1.28c-2.56,0-3.48,2.66-3.53,4.68a4.62,4.62,0,0,1,3.53-1.49c2.83,0,5.12,1.68,5.12,4.62v0c0,2.92-2.37,5-5.46,5A5.47,5.47,0,0,1,1134.07,494.74Zm7-3.34v0c0-1.47-1.17-2.56-3-2.56a2.71,2.71,0,0,0-3,2.58v.05a2.74,2.74,0,0,0,3,2.62A2.65,2.65,0,0,0,1141,491.4Z"/><path d="M1145.89,494l5.06-4.31c2-1.72,2.75-2.64,2.75-4a2.2,2.2,0,0,0-2.37-2.29c-1.34,0-2.27.73-3.38,2.2l-1.85-1.45c1.41-1.95,2.8-3.06,5.42-3.06,2.88,0,4.85,1.76,4.85,4.39v0c0,2.31-1.22,3.57-3.82,5.69l-3,2.52h7V496h-10.63Z"/><path d="M1158.72,490.56v0a5.72,5.72,0,0,1,5.78-5.79,5.58,5.58,0,0,1,4.43,1.91l-1.6,1.7a3.7,3.7,0,0,0-2.85-1.39,3.35,3.35,0,0,0-3.22,3.53v0a3.36,3.36,0,0,0,3.32,3.55,3.88,3.88,0,0,0,2.88-1.36l1.53,1.51a5.59,5.59,0,0,1-4.53,2.08A5.67,5.67,0,0,1,1158.72,490.56Z"/><path d="M1171.32,485h2.55v1.68a4,4,0,0,1,3.38-1.91,3.51,3.51,0,0,1,3.31,1.95,4.45,4.45,0,0,1,3.74-1.95c2.41,0,3.88,1.53,3.88,4.24V496h-2.54v-6.29c0-1.77-.82-2.71-2.24-2.71s-2.38,1-2.38,2.75V496h-2.54v-6.32c0-1.72-.84-2.68-2.24-2.68s-2.37,1-2.37,2.75V496h-2.55Z"/><path d="M1286.12,441.82l5.06-4.3c2-1.72,2.75-2.65,2.75-4a2.2,2.2,0,0,0-2.37-2.29c-1.35,0-2.27.74-3.38,2.21l-1.85-1.45c1.41-2,2.79-3.07,5.42-3.07,2.87,0,4.85,1.77,4.85,4.39v0c0,2.31-1.22,3.57-3.83,5.69l-3,2.52h7v2.27h-10.62Z"/><path d="M1301.7,431.68l-2.65.74-.54-2.1,4-1.26h1.78v14.8h-2.56Z"/><path d="M1307.71,441h2.79v2.9h-2.79Z"/><path d="M1312.91,441.87l1.6-1.87a5.61,5.61,0,0,0,3.78,1.76c1.76,0,2.92-1,2.92-2.54v0c0-1.49-1.26-2.44-3-2.44a6.32,6.32,0,0,0-2.7.65l-1.56-1,.42-7.2h8.8v2.29h-6.57l-.23,3.44a6.26,6.26,0,0,1,2.33-.42c2.85,0,5.12,1.52,5.12,4.62v0c0,3-2.21,5-5.46,5A7.55,7.55,0,0,1,1312.91,441.87Z"/><path d="M1328.75,428.66h2.73v2.41h-2.73Zm.1,4.11h2.54v11.09h-2.54Z"/><path d="M1334.71,432.77h2.54v1.7a4.06,4.06,0,0,1,3.47-1.93c2.49,0,3.94,1.68,3.94,4.24v7.08h-2.54v-6.3c0-1.72-.86-2.71-2.37-2.71a2.47,2.47,0,0,0-2.5,2.75v6.26h-2.54Z"/><path d="M1289.2,494.74c-1.12-1.11-1.79-2.64-1.79-5.6v0c0-4.5,2.14-8,6.3-8a6.69,6.69,0,0,1,4.49,1.63l-1.38,2a4.83,4.83,0,0,0-3.2-1.28c-2.56,0-3.48,2.66-3.52,4.68a4.6,4.6,0,0,1,3.52-1.49c2.84,0,5.13,1.68,5.13,4.62v0c0,2.92-2.37,5-5.46,5A5.44,5.44,0,0,1,1289.2,494.74Zm7-3.34v0c0-1.47-1.18-2.56-3-2.56a2.71,2.71,0,0,0-3,2.58v.05c0,1.49,1.22,2.62,3,2.62A2.66,2.66,0,0,0,1296.17,491.4Z"/><path d="M1301,494.05l1.59-1.87a5.65,5.65,0,0,0,3.78,1.77c1.77,0,2.92-1,2.92-2.55v0c0-1.49-1.26-2.43-3-2.43a6.21,6.21,0,0,0-2.7.65l-1.56-1,.42-7.2h8.8v2.29h-6.57l-.23,3.44a6.26,6.26,0,0,1,2.33-.42c2.85,0,5.12,1.51,5.12,4.62v0c0,3-2.2,5-5.46,5A7.52,7.52,0,0,1,1301,494.05Z"/><path d="M1314.06,490.56v0a5.71,5.71,0,0,1,5.77-5.79,5.58,5.58,0,0,1,4.43,1.91l-1.59,1.7a3.73,3.73,0,0,0-2.86-1.39,3.34,3.34,0,0,0-3.21,3.53v0a3.35,3.35,0,0,0,3.32,3.55,3.86,3.86,0,0,0,2.87-1.36l1.54,1.51a5.81,5.81,0,0,1-10.27-3.66Z"/><path d="M1326.66,485h2.54v1.68a4,4,0,0,1,3.38-1.91,3.51,3.51,0,0,1,3.32,1.95,4.44,4.44,0,0,1,3.73-1.95c2.42,0,3.89,1.53,3.89,4.24V496H1341v-6.29c0-1.77-.82-2.71-2.25-2.71s-2.37,1-2.37,2.75V496h-2.54v-6.32c0-1.72-.84-2.68-2.25-2.68s-2.37,1-2.37,2.75V496h-2.54Z"/><path d="M1448.72,441.82l5.06-4.3c2-1.72,2.75-2.65,2.75-4a2.2,2.2,0,0,0-2.37-2.29c-1.35,0-2.27.74-3.38,2.21l-1.85-1.45c1.41-2,2.79-3.07,5.42-3.07,2.87,0,4.85,1.77,4.85,4.39v0c0,2.31-1.22,3.57-3.82,5.69l-3,2.52h7v2.27h-10.62Z"/><path d="M1461.59,441.82l5.06-4.3c2-1.72,2.75-2.65,2.75-4a2.2,2.2,0,0,0-2.37-2.29c-1.34,0-2.27.74-3.38,2.21L1461.8,432c1.41-2,2.79-3.07,5.42-3.07,2.88,0,4.85,1.77,4.85,4.39v0c0,2.31-1.22,3.57-3.82,5.69l-3,2.52h7v2.27h-10.63Z"/><path d="M1477.17,428.66h2.73v2.41h-2.73Zm.11,4.11h2.54v11.09h-2.54Z"/><path d="M1483.14,432.77h2.54v1.7a4,4,0,0,1,3.46-1.93c2.5,0,3.95,1.68,3.95,4.24v7.08h-2.54v-6.3c0-1.72-.86-2.71-2.37-2.71a2.47,2.47,0,0,0-2.5,2.75v6.26h-2.54Z"/><path d="M1445,494.74c-1.11-1.11-1.78-2.64-1.78-5.6v0c0-4.5,2.14-8,6.3-8a6.69,6.69,0,0,1,4.49,1.63l-1.38,2a4.83,4.83,0,0,0-3.2-1.28c-2.56,0-3.48,2.66-3.52,4.68a4.6,4.6,0,0,1,3.52-1.49c2.84,0,5.13,1.68,5.13,4.62v0c0,2.92-2.38,5-5.46,5A5.48,5.48,0,0,1,1445,494.74Zm7-3.34v0c0-1.47-1.17-2.56-3-2.56a2.71,2.71,0,0,0-3,2.58v.05c0,1.49,1.22,2.62,3,2.62A2.65,2.65,0,0,0,1452,491.4Z"/><path d="M1464.28,483.62h-7.39v-2.27h10.33v1.95L1460.61,496h-2.92Z"/><path d="M1469.24,490.56v0a5.71,5.71,0,0,1,5.77-5.79,5.58,5.58,0,0,1,4.43,1.91l-1.6,1.7A3.7,3.7,0,0,0,1475,487a3.34,3.34,0,0,0-3.21,3.53v0a3.35,3.35,0,0,0,3.31,3.55,3.88,3.88,0,0,0,2.88-1.36l1.53,1.51a5.59,5.59,0,0,1-4.53,2.08A5.66,5.66,0,0,1,1469.24,490.56Z"/><path d="M1481.84,485h2.54v1.68a4,4,0,0,1,3.38-1.91,3.5,3.5,0,0,1,3.31,1.95,4.46,4.46,0,0,1,3.74-1.95c2.42,0,3.89,1.53,3.89,4.24V496h-2.54v-6.29c0-1.77-.82-2.71-2.25-2.71s-2.37,1-2.37,2.75V496H1489v-6.32c0-1.72-.84-2.68-2.25-2.68s-2.37,1-2.37,2.75V496h-2.54Z"/><path d="M663.07,431.68l-2.65.74-.54-2.1,4-1.26h1.78v14.8h-2.56Z"/><path d="M677.56,437.12a4.28,4.28,0,0,1-3.47,1.57c-3.12,0-5.2-1.82-5.2-4.66v0c0-2.87,2.22-5.08,5.48-5.08a5.38,5.38,0,0,1,4.09,1.55c1.07,1.1,1.76,2.71,1.76,5.61v0c0,4.73-2.33,8-6.29,8a7,7,0,0,1-4.71-1.76l1.41-2a5,5,0,0,0,3.36,1.39C676.59,441.76,677.54,439.07,677.56,437.12Zm-.11-3.23v-.05a2.77,2.77,0,0,0-3.06-2.7,2.69,2.69,0,0,0-2.92,2.73v0c0,1.53,1.18,2.62,3,2.62A2.71,2.71,0,0,0,677.45,433.89Z"/><path d="M682.64,441h2.79v2.9h-2.79Z"/><path d="M687.85,441.87l1.6-1.87a5.59,5.59,0,0,0,3.77,1.76c1.77,0,2.92-1,2.92-2.54v0c0-1.49-1.26-2.44-3-2.44a6.4,6.4,0,0,0-2.71.65l-1.55-1,.42-7.2h8.79v2.29h-6.57l-.23,3.44a6.3,6.3,0,0,1,2.33-.42c2.86,0,5.13,1.52,5.13,4.62v0c0,3-2.21,5-5.46,5A7.55,7.55,0,0,1,687.85,441.87Z"/><path d="M703.68,428.66h2.73v2.41h-2.73Zm.11,4.11h2.54v11.09h-2.54Z"/><path d="M709.65,432.77h2.54v1.7a4,4,0,0,1,3.46-1.93c2.5,0,4,1.68,4,4.24v7.08h-2.54v-6.3c0-1.72-.86-2.71-2.37-2.71a2.47,2.47,0,0,0-2.5,2.75v6.26h-2.54Z"/><path d="M662.14,494.05l1.59-1.87a5.65,5.65,0,0,0,3.78,1.77c1.77,0,2.92-1,2.92-2.55v0c0-1.49-1.26-2.43-3-2.43a6.21,6.21,0,0,0-2.7.65l-1.56-1,.42-7.2h8.8v2.29h-6.57l-.23,3.44a6.26,6.26,0,0,1,2.33-.42c2.85,0,5.12,1.51,5.12,4.62v0c0,3-2.2,5-5.46,5A7.54,7.54,0,0,1,662.14,494.05Z"/><path d="M675.22,494.05l1.59-1.87a5.65,5.65,0,0,0,3.78,1.77c1.77,0,2.92-1,2.92-2.55v0c0-1.49-1.26-2.43-3-2.43a6.26,6.26,0,0,0-2.71.65l-1.55-1,.42-7.2h8.79v2.29h-6.57l-.23,3.44a6.26,6.26,0,0,1,2.33-.42c2.86,0,5.12,1.51,5.12,4.62v0c0,3-2.2,5-5.45,5A7.56,7.56,0,0,1,675.22,494.05Z"/><path d="M688.3,490.56v0a5.72,5.72,0,0,1,5.78-5.79,5.59,5.59,0,0,1,4.43,1.91l-1.6,1.7a3.73,3.73,0,0,0-2.86-1.39,3.35,3.35,0,0,0-3.21,3.53v0a3.36,3.36,0,0,0,3.32,3.55,3.88,3.88,0,0,0,2.88-1.36l1.53,1.51A5.6,5.6,0,0,1,694,496.3,5.67,5.67,0,0,1,688.3,490.56Z"/><path d="M700.9,485h2.54v1.68a4,4,0,0,1,3.38-1.91,3.51,3.51,0,0,1,3.32,1.95,4.45,4.45,0,0,1,3.74-1.95c2.41,0,3.88,1.53,3.88,4.24V496h-2.54v-6.29c0-1.77-.82-2.71-2.25-2.71s-2.37,1-2.37,2.75V496h-2.54v-6.32c0-1.72-.84-2.68-2.25-2.68s-2.37,1-2.37,2.75V496H700.9Z"/><path d="M484.46,580h3.89v14.12h8.8v3.53H484.46Z"/><path d="M500.7,580H514v3.45h-9.46V587h8.32v3.45h-8.32v3.71h9.59v3.45H500.7Z"/><path d="M518.23,580h3.58l8.27,10.87V580h3.84v17.65h-3.31l-8.55-11.22v11.22h-3.83Z"/><path d="M538,588.84v-.05a9.06,9.06,0,0,1,9.25-9.13,9.67,9.67,0,0,1,6.94,2.42L551.74,585a6.47,6.47,0,0,0-4.61-1.79,5.3,5.3,0,0,0-5.07,5.5v0a5.3,5.3,0,0,0,5.35,5.6,6.22,6.22,0,0,0,3.65-1.06V590.8h-3.91v-3.35h7.67v7.67a11.45,11.45,0,0,1-7.54,2.8C541.78,597.92,538,594.06,538,588.84Z"/><path d="M563,583.54h-5.37V580h14.62v3.58h-5.37v14.07H563Z"/><path d="M575.9,580h3.88v7h7.16v-7h3.89v17.65h-3.89v-7.08h-7.16v7.08H575.9Z"/><line x1="663.82" y1="593.59" x2="713.6" y2="593.59" fill="none" stroke="#000" stroke-miterlimit="10" stroke-width="3"/><line x1="822.06" y1="593.59" x2="871.84" y2="593.59" fill="none" stroke="#000" stroke-miterlimit="10" stroke-width="3"/><line x1="980.22" y1="593.59" x2="1030.01" y2="593.59" fill="none" stroke="#000" stroke-miterlimit="10" stroke-width="3"/><line x1="1136.86" y1="593.59" x2="1186.64" y2="593.59" fill="none" stroke="#000" stroke-miterlimit="10" stroke-width="3"/><line x1="1291.19" y1="593.59" x2="1340.97" y2="593.59" fill="none" stroke="#000" stroke-miterlimit="10" stroke-width="3"/><line x1="1443.89" y1="593.59" x2="1493.67" y2="593.59" fill="none" stroke="#000" stroke-miterlimit="10" stroke-width="3"/><path d="M825.51,572.11l5.06-4.31c2-1.72,2.75-2.64,2.75-4a2.2,2.2,0,0,0-2.37-2.28c-1.35,0-2.27.73-3.38,2.2l-1.85-1.45c1.41-1.95,2.79-3.06,5.42-3.06,2.87,0,4.85,1.76,4.85,4.38v0c0,2.31-1.22,3.57-3.82,5.69l-3,2.52h7v2.26H825.51Z"/><path d="M838.36,570.13v0a3.71,3.71,0,0,1,2.65-3.57,3.53,3.53,0,0,1-2.14-3.27v0c0-2.25,2.16-4,5.1-4s5.1,1.7,5.1,4v0a3.53,3.53,0,0,1-2.14,3.27c1.61.74,2.64,1.79,2.64,3.53v0c0,2.63-2.39,4.26-5.6,4.26S838.36,572.67,838.36,570.13Zm8.69-.14v0c0-1.34-1.34-2.22-3.08-2.22s-3.07.88-3.07,2.22v0c0,1.19,1.14,2.2,3.07,2.2S847.05,571.2,847.05,570Zm-.46-6.49v0c0-1.14-1.05-2.06-2.62-2.06s-2.63.92-2.63,2v0a2.67,2.67,0,0,0,5.25,0Z"/><path d="M854.32,558.94h2.73v2.42h-2.73Zm.11,4.12H857v11.08h-2.54Z"/><path d="M860.29,563.06h2.54v1.7a4,4,0,0,1,3.46-1.93c2.5,0,4,1.68,4,4.24v7.07H867.7v-6.3c0-1.72-.86-2.7-2.38-2.7a2.46,2.46,0,0,0-2.49,2.75v6.25h-2.54Z"/><path d="M830.29,613.9h-7.4v-2.27h10.33v2l-6.61,12.75h-2.92Z"/><path d="M838.2,614.15l-2.64.74-.55-2.1,4-1.26h1.78v14.8H838.2Z"/><path d="M843.77,620.85v0a5.72,5.72,0,0,1,5.77-5.8,5.61,5.61,0,0,1,4.43,1.91l-1.59,1.7a3.73,3.73,0,0,0-2.86-1.38,3.34,3.34,0,0,0-3.21,3.53v0a3.36,3.36,0,0,0,3.32,3.55A3.87,3.87,0,0,0,852.5,623L854,624.5a5.81,5.81,0,0,1-10.27-3.65Z"/><path d="M856.37,615.24h2.54v1.68a4,4,0,0,1,3.38-1.91,3.54,3.54,0,0,1,3.32,2,4.46,4.46,0,0,1,3.73-2c2.42,0,3.89,1.53,3.89,4.24v7.08h-2.54V620c0-1.76-.82-2.71-2.25-2.71s-2.37,1-2.37,2.75v6.26h-2.54V620c0-1.72-.84-2.69-2.25-2.69s-2.37,1-2.37,2.75v6.26h-2.54Z"/><path d="M980.27,572.11l5.06-4.31c2-1.72,2.75-2.64,2.75-4a2.2,2.2,0,0,0-2.37-2.28c-1.35,0-2.27.73-3.39,2.2l-1.84-1.45c1.4-1.95,2.79-3.06,5.41-3.06,2.88,0,4.85,1.76,4.85,4.38v0c0,2.31-1.21,3.57-3.82,5.69l-3,2.52h7v2.26H980.27Z"/><path d="M1002,567.4a4.28,4.28,0,0,1-3.46,1.58c-3.13,0-5.21-1.83-5.21-4.66v0c0-2.88,2.23-5.09,5.48-5.09a5.32,5.32,0,0,1,4.09,1.56c1.08,1.09,1.77,2.71,1.77,5.6v0c0,4.72-2.33,8-6.3,8a6.94,6.94,0,0,1-4.7-1.77l1.4-2a5,5,0,0,0,3.36,1.38C1001.06,572,1002,569.36,1002,567.4Zm-.1-3.23v0a2.78,2.78,0,0,0-3.07-2.71,2.7,2.7,0,0,0-2.92,2.73v0c0,1.53,1.18,2.63,3,2.63A2.72,2.72,0,0,0,1001.92,564.17Z"/><path d="M1009.62,558.94h2.73v2.42h-2.73Zm.11,4.12h2.54v11.08h-2.54Z"/><path d="M1015.59,563.06h2.54v1.7a4,4,0,0,1,3.46-1.93c2.5,0,3.95,1.68,3.95,4.24v7.07H1023v-6.3c0-1.72-.86-2.7-2.37-2.7a2.47,2.47,0,0,0-2.5,2.75v6.25h-2.54Z"/><path d="M983.31,613.9h-7.39v-2.27h10.33v2l-6.62,12.75h-2.91Z"/><path d="M994.15,623h-7.42l-.48-1.84,8.17-9.66h2.2v9.38h2.1V623h-2.1v3.3h-2.47Zm0-2.12V615.1l-4.83,5.81Z"/><path d="M1000.8,620.85v0a5.73,5.73,0,0,1,5.78-5.8,5.61,5.61,0,0,1,4.43,1.91l-1.6,1.7a3.69,3.69,0,0,0-2.85-1.38,3.35,3.35,0,0,0-3.22,3.53v0a3.36,3.36,0,0,0,3.32,3.55,3.89,3.89,0,0,0,2.88-1.37l1.53,1.51a5.59,5.59,0,0,1-4.53,2.08A5.66,5.66,0,0,1,1000.8,620.85Z"/><path d="M1013.4,615.24h2.54v1.68a4,4,0,0,1,3.38-1.91,3.53,3.53,0,0,1,3.32,2,4.47,4.47,0,0,1,3.74-2c2.41,0,3.88,1.53,3.88,4.24v7.08h-2.54V620c0-1.76-.82-2.71-2.24-2.71s-2.38,1-2.38,2.75v6.26h-2.54V620c0-1.72-.84-2.69-2.24-2.69s-2.38,1-2.38,2.75v6.26h-2.54Z"/><path d="M1136.63,571.81l1.81-1.68a4.78,4.78,0,0,0,3.86,1.93,2.3,2.3,0,0,0,2.54-2.22v0c0-1.45-1.32-2.27-3.38-2.27h-1.2l-.42-1.62,4-4.22h-6.36v-2.24h9.72v1.93l-4.09,4.2c2.22.27,4.32,1.4,4.32,4.11v0c0,2.71-2.08,4.67-5.14,4.67A7,7,0,0,1,1136.63,571.81Z"/><path d="M1149.9,566.84v-.05c0-4.19,2.56-7.6,6.43-7.6s6.38,3.36,6.38,7.56v0c0,4.2-2.56,7.61-6.42,7.61S1149.9,571,1149.9,566.84Zm10.14,0v-.05c0-2.89-1.49-5.26-3.75-5.26s-3.72,2.3-3.72,5.22v0c0,2.9,1.47,5.27,3.76,5.27S1160,569.71,1160,566.84Z"/><path d="M1167.65,558.94h2.73v2.42h-2.73Zm.1,4.12h2.54v11.08h-2.54Z"/><path d="M1173.61,563.06h2.54v1.7a4,4,0,0,1,3.47-1.93c2.5,0,4,1.68,4,4.24v7.07H1181v-6.3c0-1.72-.87-2.7-2.38-2.7a2.47,2.47,0,0,0-2.5,2.75v6.25h-2.54Z"/><path d="M1140.16,613.9h-7.39v-2.27h10.33v2l-6.62,12.75h-2.91Z"/><path d="M1146.69,625c-1.11-1.12-1.78-2.65-1.78-5.61v0c0-4.49,2.14-8,6.3-8a6.65,6.65,0,0,1,4.49,1.64l-1.39,2a4.83,4.83,0,0,0-3.19-1.28c-2.56,0-3.48,2.67-3.53,4.68a4.64,4.64,0,0,1,3.53-1.49c2.84,0,5.12,1.68,5.12,4.62v0c0,2.92-2.37,5-5.45,5A5.51,5.51,0,0,1,1146.69,625Zm7-3.34v0c0-1.47-1.17-2.56-3-2.56a2.7,2.7,0,0,0-3,2.58v0a2.74,2.74,0,0,0,3,2.62A2.65,2.65,0,0,0,1153.66,621.69Z"/><path d="M1158.47,620.85v0a5.73,5.73,0,0,1,5.78-5.8,5.62,5.62,0,0,1,4.43,1.91l-1.6,1.7a3.73,3.73,0,0,0-2.86-1.38,3.34,3.34,0,0,0-3.21,3.53v0a3.36,3.36,0,0,0,3.32,3.55,3.89,3.89,0,0,0,2.88-1.37l1.53,1.51a5.6,5.6,0,0,1-4.54,2.08A5.66,5.66,0,0,1,1158.47,620.85Z"/><path d="M1171.07,615.24h2.54v1.68A4,4,0,0,1,1177,615a3.53,3.53,0,0,1,3.32,2,4.47,4.47,0,0,1,3.74-2c2.41,0,3.88,1.53,3.88,4.24v7.08h-2.54V620c0-1.76-.82-2.71-2.25-2.71s-2.37,1-2.37,2.75v6.26h-2.54V620c0-1.72-.84-2.69-2.24-2.69s-2.38,1-2.38,2.75v6.26h-2.54Z"/><path d="M1295.31,571.81l1.8-1.68a4.79,4.79,0,0,0,3.86,1.93,2.31,2.31,0,0,0,2.55-2.22v0c0-1.45-1.33-2.27-3.39-2.27h-1.19l-.42-1.62,4-4.22h-6.37v-2.24h9.73v1.93l-4.1,4.2c2.23.27,4.33,1.4,4.33,4.11v0c0,2.71-2.08,4.67-5.15,4.67A7,7,0,0,1,1295.31,571.81Z"/><path d="M1311.12,562l-2.65.73-.54-2.1,4-1.26h1.79v14.8h-2.56Z"/><path d="M1319.43,558.94h2.73v2.42h-2.73Zm.11,4.12h2.54v11.08h-2.54Z"/><path d="M1325.4,563.06h2.54v1.7a4,4,0,0,1,3.46-1.93c2.5,0,3.95,1.68,3.95,4.24v7.07h-2.54v-6.3c0-1.72-.86-2.7-2.37-2.7a2.47,2.47,0,0,0-2.5,2.75v6.25h-2.54Z"/><path d="M1295.34,613.9H1288v-2.27h10.33v2l-6.62,12.75h-2.92Z"/><path d="M1308.9,619.59a4.27,4.27,0,0,1-3.46,1.57c-3.13,0-5.21-1.82-5.21-4.66v0c0-2.88,2.23-5.08,5.48-5.08a5.33,5.33,0,0,1,4.09,1.55c1.08,1.1,1.77,2.71,1.77,5.61v0c0,4.73-2.33,8-6.3,8a6.94,6.94,0,0,1-4.7-1.76l1.4-2a5,5,0,0,0,3.36,1.39C1307.94,624.23,1308.88,621.54,1308.9,619.59Zm-.1-3.23v-.05a2.78,2.78,0,0,0-3.07-2.7,2.69,2.69,0,0,0-2.92,2.72v0c0,1.53,1.18,2.62,3,2.62A2.72,2.72,0,0,0,1308.8,616.36Z"/><path d="M1313.75,620.85v0a5.73,5.73,0,0,1,5.78-5.8,5.61,5.61,0,0,1,4.43,1.91l-1.6,1.7a3.69,3.69,0,0,0-2.85-1.38,3.35,3.35,0,0,0-3.22,3.53v0a3.36,3.36,0,0,0,3.32,3.55,3.89,3.89,0,0,0,2.88-1.37l1.53,1.51a5.59,5.59,0,0,1-4.53,2.08A5.66,5.66,0,0,1,1313.75,620.85Z"/><path d="M1326.35,615.24h2.54v1.68a4,4,0,0,1,3.38-1.91,3.53,3.53,0,0,1,3.32,2,4.47,4.47,0,0,1,3.74-2c2.41,0,3.88,1.53,3.88,4.24v7.08h-2.54V620c0-1.76-.82-2.71-2.24-2.71s-2.38,1-2.38,2.75v6.26h-2.54V620c0-1.72-.84-2.69-2.24-2.69s-2.38,1-2.38,2.75v6.26h-2.54Z"/><path d="M1448.54,571.81l1.81-1.68a4.78,4.78,0,0,0,3.86,1.93,2.3,2.3,0,0,0,2.54-2.22v0c0-1.45-1.32-2.27-3.38-2.27h-1.2l-.42-1.62,4-4.22h-6.36v-2.24h9.72v1.93l-4.09,4.2c2.22.27,4.32,1.4,4.32,4.11v0c0,2.71-2.08,4.67-5.14,4.67A7,7,0,0,1,1448.54,571.81Z"/><path d="M1461.64,572.11l5.06-4.31c2-1.72,2.76-2.64,2.76-4a2.2,2.2,0,0,0-2.38-2.28c-1.34,0-2.27.73-3.38,2.2l-1.85-1.45c1.41-1.95,2.8-3.06,5.42-3.06,2.88,0,4.85,1.76,4.85,4.38v0c0,2.31-1.22,3.57-3.82,5.69l-3,2.52h7v2.26h-10.63Z"/><path d="M1477.23,558.94H1480v2.42h-2.73Zm.1,4.12h2.54v11.08h-2.54Z"/><path d="M1483.19,563.06h2.54v1.7a4,4,0,0,1,3.47-1.93c2.49,0,3.94,1.68,3.94,4.24v7.07h-2.54v-6.3c0-1.72-.86-2.7-2.37-2.7a2.47,2.47,0,0,0-2.5,2.75v6.25h-2.54Z"/><path d="M1445.39,622.32v0a3.7,3.7,0,0,1,2.65-3.57,3.54,3.54,0,0,1-2.15-3.28v0c0-2.25,2.17-4,5.11-4s5.1,1.7,5.1,4v0a3.53,3.53,0,0,1-2.14,3.28c1.61.73,2.64,1.78,2.64,3.52v0c0,2.62-2.39,4.26-5.6,4.26S1445.39,624.86,1445.39,622.32Zm8.69-.15v0c0-1.34-1.34-2.23-3.08-2.23s-3.07.89-3.07,2.23v0c0,1.2,1.13,2.21,3.07,2.21S1454.08,623.39,1454.08,622.17Zm-.46-6.49v0c0-1.13-1-2.06-2.62-2.06s-2.63.93-2.63,2v0a2.67,2.67,0,0,0,5.25,0Z"/><path d="M1461.35,614.15l-2.65.74-.54-2.1,4-1.26h1.78v14.8h-2.56Z"/><path d="M1466.92,620.85v0a5.72,5.72,0,0,1,5.77-5.8,5.61,5.61,0,0,1,4.43,1.91l-1.6,1.7a3.69,3.69,0,0,0-2.85-1.38,3.34,3.34,0,0,0-3.21,3.53v0a3.35,3.35,0,0,0,3.31,3.55,3.89,3.89,0,0,0,2.88-1.37l1.53,1.51a5.59,5.59,0,0,1-4.53,2.08A5.65,5.65,0,0,1,1466.92,620.85Z"/><path d="M1479.52,615.24h2.54v1.68a4,4,0,0,1,3.38-1.91,3.51,3.51,0,0,1,3.31,2,4.49,4.49,0,0,1,3.74-2c2.42,0,3.89,1.53,3.89,4.24v7.08h-2.55V620c0-1.76-.81-2.71-2.24-2.71s-2.37,1-2.37,2.75v6.26h-2.54V620c0-1.72-.84-2.69-2.25-2.69s-2.37,1-2.37,2.75v6.26h-2.54Z"/><path d="M667.92,572.11,673,567.8c2-1.72,2.75-2.64,2.75-4a2.2,2.2,0,0,0-2.37-2.28c-1.34,0-2.27.73-3.38,2.2l-1.85-1.45c1.41-1.95,2.79-3.06,5.42-3.06,2.87,0,4.85,1.76,4.85,4.38v0c0,2.31-1.22,3.57-3.82,5.69l-3,2.52h7v2.26H667.92Z"/><path d="M688.42,561.71H681v-2.26h10.33v1.95l-6.62,12.74h-2.92Z"/><path d="M696.12,558.94h2.73v2.42h-2.73Zm.11,4.12h2.54v11.08h-2.54Z"/><path d="M702.09,563.06h2.54v1.7a4,4,0,0,1,3.46-1.93c2.5,0,3.95,1.68,3.95,4.24v7.07H709.5v-6.3c0-1.72-.86-2.7-2.37-2.7a2.47,2.47,0,0,0-2.5,2.75v6.25h-2.54Z"/><path d="M663.54,625c-1.11-1.12-1.78-2.65-1.78-5.61v0c0-4.49,2.14-8,6.3-8a6.65,6.65,0,0,1,4.49,1.64l-1.39,2a4.83,4.83,0,0,0-3.19-1.28c-2.56,0-3.48,2.67-3.52,4.68a4.6,4.6,0,0,1,3.52-1.49c2.84,0,5.13,1.68,5.13,4.62v0c0,2.92-2.38,5-5.46,5A5.51,5.51,0,0,1,663.54,625Zm7-3.34v0c0-1.47-1.17-2.56-3-2.56a2.7,2.7,0,0,0-3,2.58v0a2.74,2.74,0,0,0,3,2.62A2.65,2.65,0,0,0,670.51,621.69Z"/><path d="M684,619.59a4.29,4.29,0,0,1-3.47,1.57c-3.13,0-5.2-1.82-5.2-4.66v0c0-2.88,2.22-5.08,5.48-5.08a5.34,5.34,0,0,1,4.09,1.55c1.07,1.1,1.76,2.71,1.76,5.61v0c0,4.73-2.33,8-6.3,8a7,7,0,0,1-4.7-1.76l1.41-2a5,5,0,0,0,3.36,1.39C683.07,624.23,684,621.54,684,619.59Zm-.11-3.23v-.05a2.77,2.77,0,0,0-3.06-2.7,2.69,2.69,0,0,0-2.92,2.72v0c0,1.53,1.17,2.62,3,2.62A2.71,2.71,0,0,0,683.93,616.36Z"/><path d="M688.89,620.85v0a5.72,5.72,0,0,1,5.77-5.8,5.61,5.61,0,0,1,4.43,1.91l-1.59,1.7a3.73,3.73,0,0,0-2.86-1.38,3.34,3.34,0,0,0-3.21,3.53v0a3.36,3.36,0,0,0,3.32,3.55,3.87,3.87,0,0,0,2.87-1.37l1.54,1.51a5.81,5.81,0,0,1-10.27-3.65Z"/><path d="M701.49,615.24H704v1.68a4,4,0,0,1,3.38-1.91,3.53,3.53,0,0,1,3.32,2,4.47,4.47,0,0,1,3.73-2c2.42,0,3.89,1.53,3.89,4.24v7.08h-2.54V620c0-1.76-.82-2.71-2.25-2.71s-2.37,1-2.37,2.75v6.26h-2.54V620c0-1.72-.84-2.69-2.25-2.69s-2.37,1-2.37,2.75v6.26h-2.54Z"/><path d="M1494.27,79.07c-.08.82-.16,1.64-.23,2.46a120.51,120.51,0,0,0-.61,13.16,53.25,53.25,0,0,0,1.24,9.56,9.66,9.66,0,0,1,.32,4.33,8.6,8.6,0,0,0-.06,3.35,2.73,2.73,0,0,1-.59,2.43,1.11,1.11,0,0,0-.2.69c-.08,1.35-.14,2.69-.22,4,0,.7-.13,1.4-.18,2.1a.84.84,0,0,1-.68.81,6.73,6.73,0,0,1-1.64.29c-1.67,0-3.33-.18-5-.15s-3.38.24-5.07.35c-2,.12-3.92.3-5.88.32-2.7,0-5.41,0-8.11-.07-3.43-.09-6.86-.25-10.29-.37-1.74-.06-3.49-.12-5.24-.15-.95,0-1.91.09-2.86.06a6.66,6.66,0,0,1-1.59-.3.85.85,0,0,1-.65-.79c-.09-1.25-.18-2.51-.26-3.76,0-.73-.07-1.47-.12-2.2a2,2,0,0,0-.42-1.13,3,3,0,0,1-.42-2.09,5.52,5.52,0,0,1,.16-1,3.46,3.46,0,0,0-.07-1.86,9.6,9.6,0,0,1,.09-4.33c.41-2.53,1-5,1.18-7.58a70.44,70.44,0,0,0,.13-7.12c0-1.54-.14-3.09-.25-4.63-.15-2.12-.34-4.24-.52-6.36,0,0,0-.08-.1-.2-.2.52-.38,1-.54,1.43-1.46,4-2.9,8-4.36,12.07a15.67,15.67,0,0,0-.68,4.35,77.75,77.75,0,0,1-1.32,10.52,17.21,17.21,0,0,0-.08,6.67,6.37,6.37,0,0,0,.39,1.19,1.28,1.28,0,0,1-.29,1.52,1.4,1.4,0,0,0-.38.89,19.39,19.39,0,0,0,.14,2c0,.62.08,1.24-.69,1.57-.14.06-.22.34-.23.52-.12,1.68-.23,3.36-.3,5,0,.82-.38,1.25-1.27,1.25s-1.6-.14-2.41-.17c-.62,0-1.24,0-1.86.07-.45,0-.89.12-1.33.11-.6,0-.87-.25-.9-.82-.07-1.34-.13-2.69-.2-4,0-.34-.07-.67-.12-1a1.06,1.06,0,0,0-.62-1c-.3-.15-.39-.69-.53-1.07s-.19-.86-.35-1.26a1,1,0,0,1,.1-1,.92.92,0,0,0,0-1.15,2.15,2.15,0,0,1-.14-2,6.49,6.49,0,0,0,.45-2.19c-.06-3.22-.19-6.45-.35-9.68a41.73,41.73,0,0,1,2.16-16.54,75,75,0,0,0,2.37-9.06c.78-3.49,1.49-7,2.41-10.46a45.05,45.05,0,0,1,5.26-12.25c1.86-3,4.71-4.64,8.24-5.47a51.25,51.25,0,0,0,7.82-2.3c.28-.11.54-.24.82-.34,1.08-.39,1.34-1,1-2.16a20.71,20.71,0,0,0-.9-2.33,15.89,15.89,0,0,1-.91-9.31,60.54,60.54,0,0,1,2.55-10.32c1.47-4,4.5-6.32,8.94-7a13.46,13.46,0,0,1,8.43,1.28,10,10,0,0,1,5,5.75,58.61,58.61,0,0,1,2.78,11.92,15.27,15.27,0,0,1-1.34,8.22,13.79,13.79,0,0,0-.74,2,1.47,1.47,0,0,0,1,2,50.37,50.37,0,0,0,7.15,2.27c1.52.4,3,.83,4.52,1.36a10.29,10.29,0,0,1,5.29,4.57,44.55,44.55,0,0,1,5.52,13.23c1,4,1.82,8,2.69,12.05a74.78,74.78,0,0,0,2.25,7.76,35.94,35.94,0,0,1,1.63,8.58,66,66,0,0,1-.08,9.22c-.13,2.29-.17,4.59-.22,6.88a4.8,4.8,0,0,0,.45,2.38,2,2,0,0,1-.17,2.14.71.71,0,0,0,0,.9,1.25,1.25,0,0,1,0,1.47,1.81,1.81,0,0,0-.19.8c0,.61-.1,1.2-.87,1.44-.11,0-.2.24-.21.38-.11,1.07-.2,2.13-.28,3.2-.06.78-.09,1.56-.12,2.34a.72.72,0,0,1-.74.72,2.93,2.93,0,0,1-1,0,9,9,0,0,0-3.58,0,5.16,5.16,0,0,1-1.52,0c-.71-.11-.93-.49-1-1.14-.07-1.73-.18-3.46-.31-5.18,0-.18-.21-.34-.33-.51s-.47-.49-.51-.77a8.49,8.49,0,0,1,0-1.51,9.79,9.79,0,0,0,.06-1.32,1.29,1.29,0,0,0-.34-.77,1.36,1.36,0,0,1-.3-1.64,9.31,9.31,0,0,0,.52-2.19,25.39,25.39,0,0,0-.53-7.21c-.4-2-.58-4.09-.82-6.15-.27-2.29-.11-4.63-.84-6.87-.65-2-1.35-4-2.07-6-.88-2.44-1.81-4.87-2.71-7.3l-.15-.33Zm-44.4,34.41c0-.17,0-.3-.06-.44-.22-1.34-.46-2.69-.64-4a2.71,2.71,0,0,1,1.44-3.07,5.46,5.46,0,0,0,1-.73,11.2,11.2,0,0,0,3.59-6c.64-2.28,1.15-4.59,1.7-6.89.16-.67.14-.67.85-.68,3,0,6.07-.08,9.11-.1,1.37,0,2.74,0,4.11,0,2.12.08,4.24.26,6.37.29,1.88,0,3.76-.07,5.63-.17.53,0,.64.15.71.56a48.66,48.66,0,0,0,2,7.86,10.83,10.83,0,0,0,4.45,5.91,2.42,2.42,0,0,1,1.26,2.34c-.09,1.18-.27,2.37-.43,3.55-.07.51-.2,1-.3,1.52,1,.24,2,.48,2.93.68.61.13.93,0,1-.6a10.5,10.5,0,0,0,0-2.31,5.41,5.41,0,0,1,.07-2.23,4,4,0,0,0,.16-1.58,36.18,36.18,0,0,0-.48-3.6,50.17,50.17,0,0,1-1.12-8.88,103.12,103.12,0,0,1,.48-11.92c.39-4,.65-7.94,1.13-11.89.43-3.59,1-7.16,1.67-10.72a32,32,0,0,1,2.07-7.18.63.63,0,0,0-.12-.52,8.17,8.17,0,0,0-3.64-2.54c-1.6-.56-3.24-1-4.89-1.46a46.81,46.81,0,0,1-6.68-2.14l-.82-.34-.12.1-.21.47a10.94,10.94,0,0,1-6.13,5.71,15.49,15.49,0,0,1-8.39.82c-4.29-.74-7.44-2.87-9.18-6.66-.06-.15-.15-.29-.23-.45l-.37.14c-1.74.61-3.46,1.27-5.23,1.81-1.94.6-3.93,1-5.88,1.63a9.72,9.72,0,0,0-4.57,2.86.58.58,0,0,0-.1.71c.32.77.62,1.55.86,2.34a57.18,57.18,0,0,1,1.9,8.54c.49,3.38.94,6.77,1.32,10.16.28,2.45.46,4.91.64,7.37.22,3.1.46,6.2.56,9.3a48.2,48.2,0,0,1-.14,6.47c-.26,2.48-.77,4.93-1.18,7.4a9.26,9.26,0,0,0-.06,4.19A4.44,4.44,0,0,1,1446,111a12.29,12.29,0,0,0,0,2.5c0,.57.36.77.9.66C1447.85,114,1448.84,113.71,1449.87,113.48Zm-8.21-60.26a6.64,6.64,0,0,0-.42.53A38.8,38.8,0,0,0,1436.6,63a98,98,0,0,0-3.39,13.31,72.93,72.93,0,0,1-2.6,10,35.56,35.56,0,0,0-2.12,11.78c0,3.23.19,6.46.3,9.68,0,1.17.14,2.33.13,3.49a7.56,7.56,0,0,1-.54,3.47,1.71,1.71,0,0,0,.18,1.8,1,1,0,0,1,0,1.21,1,1,0,0,0-.14.81,4.76,4.76,0,0,1,.44,1.77c0,.61.38.77,1,.56l.5-.2a8.91,8.91,0,0,1,6.41-.18,7.84,7.84,0,0,0,.94.29c.69.15,1,0,1-.7s-.09-1.35-.16-2a1.73,1.73,0,0,1,.55-1.68.91.91,0,0,0,.19-1.14,9.74,9.74,0,0,1-.46-1.45,18.51,18.51,0,0,1,.14-6.72,61.49,61.49,0,0,0,1.14-8.42,25.65,25.65,0,0,1,.37-4.12,59.09,59.09,0,0,1,1.84-6.18c1.17-3.34,2.45-6.64,3.67-10a1.47,1.47,0,0,0,.1-.62c-.13-1.51-.25-3-.44-4.53-.45-3.44-.88-6.9-1.42-10.33a47.72,47.72,0,0,0-2.08-8.46C1442,54.11,1441.86,53.72,1441.66,53.22Zm57.3.09-.22,0c-.32.93-.68,1.85-1,2.79a57.88,57.88,0,0,0-1.91,9c-.54,4.18-1,8.37-1.46,12.55a1.85,1.85,0,0,0,.11.9c1.26,3.45,2.49,6.91,3.83,10.34a30.53,30.53,0,0,1,2,9.78,49.34,49.34,0,0,0,.66,5.93,37.28,37.28,0,0,1,.82,7.3,5.78,5.78,0,0,1-.68,3.4.77.77,0,0,0,.14,1.06,1.88,1.88,0,0,1,.58,1.85,12.75,12.75,0,0,0-.14,1.74c0,.85.27,1,1.16.82.24-.06.47-.14.7-.22a8.73,8.73,0,0,1,5.9,0c.44.14.86.31,1.29.47a.49.49,0,0,0,.68-.28,4.29,4.29,0,0,0,.16-.71,4.13,4.13,0,0,1,.27-1.06,1.07,1.07,0,0,0-.05-1.25.8.8,0,0,1,0-1,2.07,2.07,0,0,0,.15-2.18,4.26,4.26,0,0,1-.38-1.6c0-2.21,0-4.43.12-6.65a85.93,85.93,0,0,0,.19-9.22,38.2,38.2,0,0,0-1.27-8.08c-.58-2.07-1.41-4.09-1.91-6.17-1.1-4.56-2-9.15-3.1-13.71a48,48,0,0,0-5.23-13.49C1500,54.8,1499.45,54.06,1499,53.31Zm-28.82,61.15v-.12c1.61,0,3.23,0,4.85,0,4.5-.13,9-.3,13.5-.45l1.33,0a.45.45,0,0,0,.5-.4c.2-1.1.39-2.2.61-3.3.08-.39-.07-.55-.42-.75a21.77,21.77,0,0,1-2.68-1.71,14.41,14.41,0,0,1-4.27-6.14,63.38,63.38,0,0,1-2.46-8.71c-.17-.7-.16-.69-.93-.7-1.7,0-3.4,0-5.1,0-2.06-.07-4.11-.26-6.17-.29-2.36,0-4.72,0-7.08.06-.56,0-1.12,0-1.68,0a.55.55,0,0,0-.66.51c-.15.74-.34,1.47-.52,2.2a42.84,42.84,0,0,1-2.48,8,13.34,13.34,0,0,1-6.59,6.88.53.53,0,0,0-.34.64c.15.9.26,1.82.48,2.71.27,1.14,0,1,1.46,1.1l6.78.19Zm-.14-61c-.71-1.3-1.34-2.43-1.94-3.57a7.8,7.8,0,0,0-2-2.43,21.86,21.86,0,0,1-2.4-2.31,10.4,10.4,0,0,1-2.88-6.84,25.72,25.72,0,0,1,.9-7.24c.54-2,1-4,1.68-5.9A5.74,5.74,0,0,1,1467.9,21a11.78,11.78,0,0,1,4.62,0,5.3,5.3,0,0,1,3.62,2.28,8.68,8.68,0,0,1,1.14,2.33c.94,3.46,2.11,6.86,2.36,10.46a11.35,11.35,0,0,1-1.87,7.78,20.33,20.33,0,0,1-3.78,3.92,3.4,3.4,0,0,0-.79.82c-.6,1-1.16,2-1.74,3l-.94,1.65a3.19,3.19,0,0,0,.4,0c.75-.08,1.51-.13,2.25-.27,4.18-.8,7.18-2.95,8.79-6.68a1.38,1.38,0,0,0,0-.64,4.23,4.23,0,0,1-.15-1.25,10.78,10.78,0,0,1,.7-2,15.54,15.54,0,0,0,1.46-7.57c-.09-1.16-.29-2.31-.49-3.46a52.2,52.2,0,0,0-2.36-9.24,9.68,9.68,0,0,0-3.95-5,12.86,12.86,0,0,0-9.26-1.71,10.17,10.17,0,0,0-8.11,5.72,18.86,18.86,0,0,0-1.21,3.4c-.66,2.72-1.27,5.44-1.82,8.18a14.58,14.58,0,0,0,.45,7.72c.4,1.17.93,2.3,1.31,3.47a2.58,2.58,0,0,1,.07,1.55,1.58,1.58,0,0,0,.1,1.35,11.14,11.14,0,0,0,8.21,6.17C1467.88,53.17,1468.89,53.25,1470,53.41Zm.26-32.41v.1c-.32,0-.63,0-.94,0a5.68,5.68,0,0,0-5.31,3.24,16.37,16.37,0,0,0-.88,2.52,45.07,45.07,0,0,0-2,9.58,11.38,11.38,0,0,0,.78,5.41,16.25,16.25,0,0,0,4.39,5.43,6.35,6.35,0,0,0,2.88,1.54c1.5.34,2.74-.3,4.06-.67,0,0,.08-.06.11-.09,1-1,2.11-1.85,3.07-2.86a10.28,10.28,0,0,0,3.06-7.46,25.87,25.87,0,0,0-.79-6.19c-.6-2.19-1.15-4.4-1.88-6.56a5.2,5.2,0,0,0-3.87-3.62A25.22,25.22,0,0,0,1470.26,21Zm23.26,99.69c0-.19.06-.27.07-.36.06-1.22.12-2.45.19-3.67,0-.6.09-1.19.1-1.79,0-.15-.11-.4-.22-.43-.94-.24-1.89-.44-2.84-.63-.1,0-.23.06-.34.1a2.06,2.06,0,0,1-.56.19c-1.67.05-3.34.06-5,.11-4,.14-7.94.4-11.92.41-4.71,0-9.43-.19-14.14-.3l-8.17-.21a3.67,3.67,0,0,1-.64-.14c-.17,0-.36-.16-.51-.13-.82.16-1.63.39-2.45.53-.44.07-.54.24-.51.61.09,1.31.14,2.63.22,3.94,0,.56.09,1.12.14,1.78a3.24,3.24,0,0,1,2.57-.71l3.11.18c1.39.08,2.77.12,4.15.25a35.28,35.28,0,0,0,6.08,0c2.05-.18,4.1-.35,6.16-.48a66.09,66.09,0,0,1,7.7.4c1.89.1,3.79.26,5.68.2,2.91-.08,5.82-.33,8.73-.51A3,3,0,0,1,1493.52,120.69ZM1490.7,122l0,.13c.71-.11,1.43-.17,2.13-.34s.76-.71.25-1.12a1.83,1.83,0,0,0-1-.41c-.9,0-1.8,0-2.7.07-1.65.07-3.31,0-4.94.24a42.51,42.51,0,0,1-8.29-.09c-2.16-.18-4.34-.39-6.51-.38s-4.43.3-6.65.47a29.49,29.49,0,0,1-5.48.12c-.64-.07-1.28-.12-1.92-.16-2.17-.12-4.34-.25-6.51-.33a3.23,3.23,0,0,0-1.48.28,1.19,1.19,0,0,0-.55.83c0,.38.4.51.73.55.85.09,1.71.17,2.56.18,2.27,0,4.55,0,6.82,0,3.69.11,7.38.31,11.07.41,2.47.07,5,.06,7.42,0,1.74,0,3.49-.14,5.23-.26,1.31-.09,2.62-.33,3.93-.36C1486.81,121.89,1488.76,122,1490.7,122Zm-53.21,4.61c0-.16,0-.25,0-.33.07-1.36.14-2.72.22-4.08.06-1,.07-1.06-1-1.44a8.65,8.65,0,0,0-6.57.31.61.61,0,0,0-.28.49c.06,1.18.17,2.35.26,3.52,0,.55.08,1.09.12,1.72a2.55,2.55,0,0,1,2.17-.53,9.74,9.74,0,0,0,2,0A4,4,0,0,1,1437.49,126.64Zm65.48-.07a4.22,4.22,0,0,1,3-.3,10.64,10.64,0,0,0,2.11,0,2.54,2.54,0,0,1,2.13.49c0-.09.06-.13.07-.17.13-1.7.26-3.41.37-5.12a.44.44,0,0,0-.21-.36,8.8,8.8,0,0,0-4.25-.83,11.74,11.74,0,0,0-3,.67c-.42.14-.52.31-.49.7.12,1.48.21,3,.3,4.44Q1503,126.33,1503,126.57Zm-53.38-17.18c.82-.5,1.63-.92,2.34-1.44a14.14,14.14,0,0,0,4.71-6.4,53,53,0,0,0,2.19-7.53c.16-.68.32-1.36.49-2.06a1.64,1.64,0,0,0-.25-.06l-1.14,0c-.73,0-.73,0-.85.7a49.72,49.72,0,0,1-2.06,7.84,11.18,11.18,0,0,1-4.58,5.88A2.47,2.47,0,0,0,1449.59,109.39Zm41.35-.07a2.49,2.49,0,0,0-1.11-3.09,10.75,10.75,0,0,1-3.18-3.23,19.94,19.94,0,0,1-2.14-5.51c-.44-1.67-.78-3.36-1.13-5-.08-.38-.24-.52-.66-.46a9.79,9.79,0,0,1-1.08.07c-.35,0-.43.15-.36.44a73.7,73.7,0,0,0,2.37,8.58,15.17,15.17,0,0,0,4.3,6.41A11.38,11.38,0,0,0,1490.94,109.32Zm13.61,17a5.84,5.84,0,0,0-1.24.42c-.48.26-.41.66.13.82a4.14,4.14,0,0,0,1.31.12c.9,0,1.8-.19,2.7-.2.62,0,1.23.2,1.85.23a2.38,2.38,0,0,0,.8-.3c-.16-.25-.26-.65-.49-.72a5.89,5.89,0,0,0-1.53-.16c-.59,0-1.18,0-1.77,0S1505.3,126.45,1504.55,126.36Zm-72.73.28,0-.17a2.36,2.36,0,0,0-.84.21c-.25.19-.57.53-.54.77s.51.32.86.29c.81-.08,1.63-.21,2.45-.21s1.37.18,2,.2a4.59,4.59,0,0,0,1.43-.22c.34-.11.38-.39.08-.65a1.86,1.86,0,0,0-1.45-.44Zm40.12-76.44h-3.41l1.62,2.92h.18Zm.9-1.59-.06-.17a5.89,5.89,0,0,1-5,.19c.13.34.3.6.42.88a.72.72,0,0,0,.73.43c.93,0,1.85,0,2.77,0a.68.68,0,0,0,.5-.2A12.69,12.69,0,0,0,1472.84,48.61Z" stroke="#000" stroke-miterlimit="10" stroke-width="0.5"/><path d="M1449.87,113.48c-1,.23-2,.49-3,.68-.54.11-.86-.09-.9-.66a12.29,12.29,0,0,1,0-2.5,4.44,4.44,0,0,0-.07-1.85,9.26,9.26,0,0,1,.06-4.19c.41-2.47.92-4.92,1.18-7.4a48.2,48.2,0,0,0,.14-6.47c-.1-3.1-.34-6.2-.56-9.3-.18-2.46-.36-4.92-.64-7.37-.38-3.39-.83-6.78-1.32-10.16a57.18,57.18,0,0,0-1.9-8.54c-.24-.79-.54-1.57-.86-2.34a.58.58,0,0,1,.1-.71,9.72,9.72,0,0,1,4.57-2.86c1.95-.59,3.94-1,5.88-1.63,1.77-.54,3.49-1.2,5.23-1.81l.37-.14c.08.16.17.3.23.45,1.74,3.79,4.89,5.92,9.18,6.66a15.49,15.49,0,0,0,8.39-.82,10.94,10.94,0,0,0,6.13-5.71l.21-.47.12-.1.82.34a46.81,46.81,0,0,0,6.68,2.14c1.65.43,3.29.9,4.89,1.46a8.17,8.17,0,0,1,3.64,2.54.63.63,0,0,1,.12.52,32,32,0,0,0-2.07,7.18c-.63,3.56-1.24,7.13-1.67,10.72-.48,4-.74,7.92-1.13,11.89a103.12,103.12,0,0,0-.48,11.92,50.17,50.17,0,0,0,1.12,8.88,36.18,36.18,0,0,1,.48,3.6,4,4,0,0,1-.16,1.58,5.41,5.41,0,0,0-.07,2.23,10.5,10.5,0,0,1,0,2.31c-.06.57-.38.73-1,.6-1-.2-1.91-.44-2.93-.68.1-.51.23-1,.3-1.52.16-1.18.34-2.37.43-3.55a2.42,2.42,0,0,0-1.26-2.34,10.83,10.83,0,0,1-4.45-5.91,48.66,48.66,0,0,1-2-7.86c-.07-.41-.18-.59-.71-.56-1.87.1-3.75.2-5.63.17-2.13,0-4.25-.21-6.37-.29-1.37,0-2.74,0-4.11,0-3,0-6.07.07-9.11.1-.71,0-.69,0-.85.68-.55,2.3-1.06,4.61-1.7,6.89a11.2,11.2,0,0,1-3.59,6,5.46,5.46,0,0,1-1,.73,2.71,2.71,0,0,0-1.44,3.07c.18,1.35.42,2.7.64,4C1449.83,113.18,1449.85,113.31,1449.87,113.48Z" fill="#fff" stroke="#000" stroke-miterlimit="10" stroke-width="0.5"/><path d="M1441.66,53.22c.2.5.37.89.51,1.29a47.72,47.72,0,0,1,2.08,8.46c.54,3.43,1,6.89,1.42,10.33.19,1.51.31,3,.44,4.53a1.47,1.47,0,0,1-.1.62c-1.22,3.32-2.5,6.62-3.67,10a59.09,59.09,0,0,0-1.84,6.18,25.65,25.65,0,0,0-.37,4.12,61.49,61.49,0,0,1-1.14,8.42,18.51,18.51,0,0,0-.14,6.72,9.74,9.74,0,0,0,.46,1.45.91.91,0,0,1-.19,1.14,1.73,1.73,0,0,0-.55,1.68c.07.67.14,1.34.16,2s-.29.85-1,.7a7.84,7.84,0,0,1-.94-.29,8.91,8.91,0,0,0-6.41.18l-.5.2c-.64.21-1,0-1-.56a4.76,4.76,0,0,0-.44-1.77,1,1,0,0,1,.14-.81,1,1,0,0,0,0-1.21,1.71,1.71,0,0,1-.18-1.8,7.56,7.56,0,0,0,.54-3.47c0-1.16-.09-2.32-.13-3.49-.11-3.22-.33-6.45-.3-9.68a35.56,35.56,0,0,1,2.12-11.78,72.93,72.93,0,0,0,2.6-10A98,98,0,0,1,1436.6,63a38.8,38.8,0,0,1,4.64-9.26A6.64,6.64,0,0,1,1441.66,53.22Z" fill="#fff" stroke="#000" stroke-miterlimit="10" stroke-width="0.5"/><path d="M1499,53.31c.49.75,1,1.49,1.47,2.26a48,48,0,0,1,5.23,13.49c1.06,4.56,2,9.15,3.1,13.71.5,2.08,1.33,4.1,1.91,6.17a38.2,38.2,0,0,1,1.27,8.08,85.93,85.93,0,0,1-.19,9.22c-.1,2.22-.12,4.44-.12,6.65a4.26,4.26,0,0,0,.38,1.6,2.07,2.07,0,0,1-.15,2.18.8.8,0,0,0,0,1,1.07,1.07,0,0,1,.05,1.25,4.13,4.13,0,0,0-.27,1.06,4.29,4.29,0,0,1-.16.71.49.49,0,0,1-.68.28c-.43-.16-.85-.33-1.29-.47a8.73,8.73,0,0,0-5.9,0c-.23.08-.46.16-.7.22-.89.22-1.18,0-1.16-.82a12.75,12.75,0,0,1,.14-1.74,1.88,1.88,0,0,0-.58-1.85.77.77,0,0,1-.14-1.06,5.78,5.78,0,0,0,.68-3.4,37.28,37.28,0,0,0-.82-7.3,49.34,49.34,0,0,1-.66-5.93,30.53,30.53,0,0,0-2-9.78c-1.34-3.43-2.57-6.89-3.83-10.34a1.85,1.85,0,0,1-.11-.9c.47-4.18.92-8.37,1.46-12.55a57.88,57.88,0,0,1,1.91-9c.28-.94.64-1.86,1-2.79Z" fill="#fff" stroke="#000" stroke-miterlimit="10" stroke-width="0.5"/><path d="M1470.14,114.46l-11.87-.38-6.78-.19c-1.51-.06-1.19,0-1.46-1.1-.22-.89-.33-1.81-.48-2.71a.53.53,0,0,1,.34-.64,13.34,13.34,0,0,0,6.59-6.88,42.84,42.84,0,0,0,2.48-8c.18-.73.37-1.46.52-2.2a.55.55,0,0,1,.66-.51c.56,0,1.12,0,1.68,0,2.36,0,4.72-.1,7.08-.06,2.06,0,4.11.22,6.17.29,1.7.05,3.4,0,5.1,0,.77,0,.76,0,.93.7a63.38,63.38,0,0,0,2.46,8.71,14.41,14.41,0,0,0,4.27,6.14,21.77,21.77,0,0,0,2.68,1.71c.35.2.5.36.42.75-.22,1.1-.41,2.2-.61,3.3a.45.45,0,0,1-.5.4l-1.33,0c-4.5.15-9,.32-13.5.45-1.62,0-3.24,0-4.85,0Z" fill="#fff" stroke="#000" stroke-miterlimit="10" stroke-width="0.5"/><path d="M1470,53.41c-1.11-.16-2.12-.24-3.09-.44a11.14,11.14,0,0,1-8.21-6.17,1.58,1.58,0,0,1-.1-1.35,2.58,2.58,0,0,0-.07-1.55c-.38-1.17-.91-2.3-1.31-3.47a14.58,14.58,0,0,1-.45-7.72c.55-2.74,1.16-5.46,1.82-8.18a18.86,18.86,0,0,1,1.21-3.4,10.17,10.17,0,0,1,8.11-5.72,12.86,12.86,0,0,1,9.26,1.71,9.68,9.68,0,0,1,3.95,5,52.2,52.2,0,0,1,2.36,9.24c.2,1.15.4,2.3.49,3.46a15.54,15.54,0,0,1-1.46,7.57,10.78,10.78,0,0,0-.7,2,4.23,4.23,0,0,0,.15,1.25,1.38,1.38,0,0,1,0,.64c-1.61,3.73-4.61,5.88-8.79,6.68-.74.14-1.5.19-2.25.27a3.19,3.19,0,0,1-.4,0l.94-1.65c.58-1,1.14-2,1.74-3a3.4,3.4,0,0,1,.79-.82,20.33,20.33,0,0,0,3.78-3.92,11.35,11.35,0,0,0,1.87-7.78c-.25-3.6-1.42-7-2.36-10.46a8.68,8.68,0,0,0-1.14-2.33,5.3,5.3,0,0,0-3.62-2.28,11.78,11.78,0,0,0-4.62,0,5.74,5.74,0,0,0-4.52,4.09c-.65,1.94-1.14,3.93-1.68,5.9a25.72,25.72,0,0,0-.9,7.24,10.4,10.4,0,0,0,2.88,6.84,21.86,21.86,0,0,0,2.4,2.31,7.8,7.8,0,0,1,2,2.43C1468.66,51,1469.29,52.11,1470,53.41Z" fill="#fff" stroke="#000" stroke-miterlimit="10" stroke-width="0.5"/><path d="M1470.26,21a25.22,25.22,0,0,1,2.63.37,5.2,5.2,0,0,1,3.87,3.62c.73,2.16,1.28,4.37,1.88,6.56a25.87,25.87,0,0,1,.79,6.19,10.28,10.28,0,0,1-3.06,7.46c-1,1-2,1.91-3.07,2.86,0,0-.07.08-.11.09-1.32.37-2.56,1-4.06.67a6.35,6.35,0,0,1-2.88-1.54,16.25,16.25,0,0,1-4.39-5.43,11.38,11.38,0,0,1-.78-5.41,45.07,45.07,0,0,1,2-9.58,16.37,16.37,0,0,1,.88-2.52,5.68,5.68,0,0,1,5.31-3.24c.31,0,.62,0,.94,0Z"/><path d="M1493.52,120.69a3,3,0,0,0-2.4-.71c-2.91.18-5.82.43-8.73.51-1.89.06-3.79-.1-5.68-.2a66.09,66.09,0,0,0-7.7-.4c-2.06.13-4.11.3-6.16.48a35.28,35.28,0,0,1-6.08,0c-1.38-.13-2.76-.17-4.15-.25l-3.11-.18a3.24,3.24,0,0,0-2.57.71c0-.66-.11-1.22-.14-1.78-.08-1.31-.13-2.63-.22-3.94,0-.37.07-.54.51-.61.82-.14,1.63-.37,2.45-.53.15,0,.34.09.51.13a3.67,3.67,0,0,0,.64.14l8.17.21c4.71.11,9.43.31,14.14.3,4,0,8-.27,11.92-.41,1.66,0,3.33-.06,5-.11a2.06,2.06,0,0,0,.56-.19c.11,0,.24-.12.34-.1,1,.19,1.9.39,2.84.63.11,0,.22.28.22.43,0,.6-.07,1.19-.1,1.79-.07,1.22-.13,2.45-.19,3.67C1493.58,120.42,1493.55,120.5,1493.52,120.69Z" fill="#fff" stroke="#000" stroke-miterlimit="10" stroke-width="0.5"/><path d="M1490.7,122c-1.94,0-3.89-.14-5.83-.11-1.31,0-2.62.27-3.93.36-1.74.12-3.49.24-5.23.26-2.47,0-5,0-7.42,0-3.69-.1-7.38-.3-11.07-.41-2.27-.06-4.55,0-6.82,0-.85,0-1.71-.09-2.56-.18-.33,0-.78-.17-.73-.55a1.19,1.19,0,0,1,.55-.83,3.23,3.23,0,0,1,1.48-.28c2.17.08,4.34.21,6.51.33.64,0,1.28.09,1.92.16a29.49,29.49,0,0,0,5.48-.12c2.22-.17,4.43-.45,6.65-.47s4.35.2,6.51.38a42.51,42.51,0,0,0,8.29.09c1.63-.19,3.29-.17,4.94-.24.9,0,1.8-.1,2.7-.07a1.83,1.83,0,0,1,1,.41c.51.41.39,1-.25,1.12s-1.42.23-2.13.34Z" fill="#fff" stroke="#000" stroke-miterlimit="10" stroke-width="0.5"/><path d="M1437.49,126.64a4,4,0,0,0-3-.36,9.74,9.74,0,0,1-2,0,2.55,2.55,0,0,0-2.17.53c0-.63-.08-1.17-.12-1.72-.09-1.17-.2-2.34-.26-3.52a.61.61,0,0,1,.28-.49,8.65,8.65,0,0,1,6.57-.31c1.08.38,1.07.39,1,1.44-.08,1.36-.15,2.72-.22,4.08C1437.53,126.39,1437.51,126.48,1437.49,126.64Z" fill="#fff" stroke="#000" stroke-miterlimit="10" stroke-width="0.5"/><path d="M1503,126.57q0-.24,0-.45c-.09-1.48-.18-3-.3-4.44,0-.39.07-.56.49-.7a11.74,11.74,0,0,1,3-.67,8.8,8.8,0,0,1,4.25.83.44.44,0,0,1,.21.36c-.11,1.71-.24,3.42-.37,5.12,0,0,0,.08-.07.17a2.54,2.54,0,0,0-2.13-.49,10.64,10.64,0,0,1-2.11,0A4.22,4.22,0,0,0,1503,126.57Z" fill="#fff" stroke="#000" stroke-miterlimit="10" stroke-width="0.5"/><path d="M1449.59,109.39a2.47,2.47,0,0,1,.85-3,11.18,11.18,0,0,0,4.58-5.88,49.72,49.72,0,0,0,2.06-7.84c.12-.66.12-.67.85-.7l1.14,0a1.64,1.64,0,0,1,.25.06c-.17.7-.33,1.38-.49,2.06a53,53,0,0,1-2.19,7.53,14.14,14.14,0,0,1-4.71,6.4C1451.22,108.47,1450.41,108.89,1449.59,109.39Z" fill="#fff" stroke="#000" stroke-miterlimit="10" stroke-width="0.5"/><path d="M1490.94,109.32a11.38,11.38,0,0,1-3-1.83,15.17,15.17,0,0,1-4.3-6.41,73.7,73.7,0,0,1-2.37-8.58c-.07-.29,0-.44.36-.44a9.79,9.79,0,0,0,1.08-.07c.42-.06.58.08.66.46.35,1.68.69,3.37,1.13,5a19.94,19.94,0,0,0,2.14,5.51,10.75,10.75,0,0,0,3.18,3.23A2.49,2.49,0,0,1,1490.94,109.32Z" fill="#fff" stroke="#000" stroke-miterlimit="10" stroke-width="0.5"/><path d="M1504.55,126.36c.75.09,1.25.18,1.76.2s1.18,0,1.77,0a5.89,5.89,0,0,1,1.53.16c.23.07.33.47.49.72a2.38,2.38,0,0,1-.8.3c-.62,0-1.23-.23-1.85-.23-.9,0-1.8.16-2.7.2a4.14,4.14,0,0,1-1.31-.12c-.54-.16-.61-.56-.13-.82A5.84,5.84,0,0,1,1504.55,126.36Z" fill="#fff" stroke="#000" stroke-miterlimit="10" stroke-width="0.5"/><path d="M1431.82,126.64l4-.22a1.86,1.86,0,0,1,1.45.44c.3.26.26.54-.08.65a4.59,4.59,0,0,1-1.43.22c-.68,0-1.37-.21-2-.2s-1.64.13-2.45.21c-.35,0-.82.09-.86-.29s.29-.58.54-.77a2.36,2.36,0,0,1,.84-.21Z" fill="#fff" stroke="#000" stroke-miterlimit="10" stroke-width="0.5"/><path d="M1471.94,50.2l-1.61,2.92h-.18l-1.62-2.92Z" fill="#fff" stroke="#000" stroke-miterlimit="10" stroke-width="0.5"/><path d="M1472.84,48.61a12.69,12.69,0,0,1-.68,1.11.68.68,0,0,1-.5.2c-.92,0-1.84,0-2.77,0a.72.72,0,0,1-.73-.43c-.12-.28-.29-.54-.42-.88a5.89,5.89,0,0,0,5-.19Z" fill="#fff" stroke="#000" stroke-miterlimit="10" stroke-width="0.5"/><path d="M324.2,429.89c-.33,3.58-.67,7.16-1,10.74-1.66,19.12-3.09,38.25-2.65,57.45.33,14.07,2.53,27.94,5.37,41.74,1.29,6.23,3,12.58,1.4,18.87-1.31,5-.84,9.73-.22,14.66.46,3.67.43,7.46-2.62,10.57a5,5,0,0,0-.85,3c-.37,5.86-.61,11.74-1,17.61-.18,3.07-.56,6.12-.79,9.18a3.72,3.72,0,0,1-3,3.56,29,29,0,0,1-7.16,1.23c-7.27-.07-14.54-.77-21.79-.63s-14.77,1-22.16,1.51c-8.54.55-17.08,1.3-25.63,1.42-11.81.16-23.62,0-35.43-.34-15-.39-29.92-1.06-44.89-1.58-7.62-.27-15.25-.55-22.87-.67-4.17-.06-8.35.4-12.51.28a30.14,30.14,0,0,1-6.92-1.34,3.65,3.65,0,0,1-2.82-3.45c-.39-5.47-.8-10.93-1.16-16.39-.22-3.2-.32-6.41-.53-9.61a8.48,8.48,0,0,0-1.82-5c-2.06-2.63-2-5.92-1.83-9.09a27.11,27.11,0,0,1,.7-4.36,15.21,15.21,0,0,0-.29-8.11c-1.91-6.31-.62-12.6.39-18.88,1.78-11,4.13-22,5.14-33.11,1-10.29.62-20.69.54-31.05,0-6.74-.59-13.48-1.07-20.21-.67-9.26-1.49-18.52-2.26-27.77a4.33,4.33,0,0,0-.43-.87c-.88,2.29-1.67,4.26-2.39,6.26q-9.51,26.32-19,52.66c-2.23,6.17-2.55,12.59-3,19-1,15.41-2.6,30.75-5.75,45.95a74.84,74.84,0,0,0-.35,29.11,25.92,25.92,0,0,0,1.68,5.16,5.56,5.56,0,0,1-1.28,6.65A6.27,6.27,0,0,0,82.39,598c0,2.93.41,5.86.62,8.79.2,2.71.38,5.38-3,6.84-.6.26-1,1.46-1,2.26-.5,7.33-1,14.66-1.31,22-.16,3.58-1.64,5.45-5.52,5.47-3.5,0-7-.63-10.52-.75-2.71-.1-5.43.13-8.14.29-1.93.12-3.85.52-5.78.52-2.63,0-3.79-1.13-3.92-3.58-.33-5.87-.57-11.75-.89-17.62-.08-1.46-.3-2.92-.51-4.38-.26-1.76-.52-3.23-2.71-4.3-1.3-.65-1.73-3-2.31-4.66s-.83-3.74-1.53-5.51a4.54,4.54,0,0,1,.43-4.59,4,4,0,0,0-.07-5c-1.88-2.79-1.63-5.73-.58-8.86s2-6.36,2-9.54q-.45-21.14-1.55-42.26c-1.25-24.57,1-48.75,9.41-72.21,4.65-12.91,7.39-26.23,10.36-39.51,3.41-15.25,6.53-30.56,10.51-45.68a198,198,0,0,1,23-53.47c8.12-13.19,20.56-20.24,36-23.88,11.57-2.74,23.17-5.5,34.15-10,1.19-.48,2.34-1.05,3.54-1.49,4.73-1.7,5.89-4.39,4.43-9.41a93.41,93.41,0,0,0-3.92-10.19c-5.62-13.18-6.49-26.73-4-40.6,2.73-15.24,5.79-30.4,11.16-45.09,6.42-17.51,19.61-27.56,39-30.69a58.32,58.32,0,0,1,36.79,5.59c10.88,5.6,17.7,14.27,21.6,25.08,6.1,16.93,9.7,34.38,12.13,52,1.71,12.41-.86,24.34-5.87,35.88a59.26,59.26,0,0,0-3.2,8.72c-.95,3.63-.46,6.57,4.34,8.62,10.07,4.29,20.61,7.17,31.23,9.94,6.64,1.74,13.27,3.62,19.72,5.9,10.54,3.72,17.52,11.16,23.09,20a194.25,194.25,0,0,1,24.1,57.75c4.32,17.45,7.93,35.05,11.74,52.61a322.19,322.19,0,0,0,9.82,33.86c4.08,12.17,6.06,24.73,7.11,37.43,1.11,13.43.37,26.83-.36,40.25-.54,10-.72,20-1,30a20.8,20.8,0,0,0,2,10.36,8.65,8.65,0,0,1-.77,9.37,3.09,3.09,0,0,0-.09,3.92c1.52,2.13,1.38,4.2.09,6.42a8.26,8.26,0,0,0-.82,3.46c-.22,2.67-.43,5.24-3.81,6.31-.46.14-.85,1.06-.91,1.65-.47,4.65-.89,9.31-1.23,14-.25,3.4-.4,6.8-.53,10.21-.07,2-1.27,3-3.2,3.15a12.58,12.58,0,0,1-4.29-.12c-5.23-1.41-10.39-.77-15.62-.06a23.44,23.44,0,0,1-6.64,0c-3.1-.47-4.06-2.15-4.18-5-.32-7.54-.8-15.07-1.34-22.6,0-.76-.94-1.48-1.46-2.21-.77-1.12-2.06-2.16-2.23-3.35a36.35,36.35,0,0,1,.11-6.59,45,45,0,0,0,.24-5.79,5.64,5.64,0,0,0-1.5-3.36c-2.26-2.2-2.31-4.39-1.3-7.16a38.14,38.14,0,0,0,2.27-9.53c1-10.59-.26-21-2.3-31.49-1.73-8.85-2.53-17.86-3.59-26.82-1.18-10-.48-20.23-3.64-30-2.84-8.77-5.91-17.48-9.05-26.15-3.86-10.65-7.89-21.24-11.85-31.85-.18-.49-.42-1-.63-1.44ZM130.42,580.07c-.1-.71-.17-1.3-.26-1.88-.95-5.88-2-11.74-2.8-17.64-.73-5.52.52-10.36,6.28-13.4a25.45,25.45,0,0,0,4.15-3.19c8.52-7,12.92-16.17,15.69-26s5-20,7.42-30.07c.7-2.9.61-2.92,3.71-3,13.25-.15,26.5-.33,39.75-.43,6-.05,12-.07,17.93.15,9.27.34,18.53,1.16,27.8,1.29,8.2.12,16.41-.31,24.6-.75,2.31-.12,2.77.64,3.07,2.45a213.06,213.06,0,0,0,8.68,34.3c3.63,10.48,9.5,19.5,19.42,25.81,4,2.54,5.86,5.9,5.53,10.18-.41,5.18-1.19,10.35-1.9,15.51-.31,2.22-.85,4.42-1.29,6.63,4.44,1.05,8.59,2.11,12.79,3,2.64.55,4.05-.15,4.33-2.63a46.29,46.29,0,0,0,.16-10.12c-.36-3.28-.71-6.41.3-9.69a18.25,18.25,0,0,0,.71-6.93,152.94,152.94,0,0,0-2.1-15.68c-2.52-12.84-4.65-25.7-4.87-38.77a450.27,450.27,0,0,1,2.06-52.06c1.71-17.29,2.85-34.63,4.94-51.88,1.9-15.65,4.54-31.24,7.28-46.79a139.21,139.21,0,0,1,9-31.32,2.69,2.69,0,0,0-.52-2.29,35.6,35.6,0,0,0-15.86-11.09c-7-2.45-14.16-4.48-21.35-6.38-9.92-2.61-19.8-5.26-29.17-9.33-1.22-.53-2.46-1-3.6-1.45-.28.25-.43.32-.48.43-.33.67-.63,1.35-.94,2-5.38,11.58-14.24,20-26.76,24.91a67.12,67.12,0,0,1-36.63,3.59c-18.71-3.22-32.47-12.5-40-29-.3-.65-.65-1.27-1-2l-1.63.58c-7.6,2.67-15.12,5.56-22.83,7.93-8.47,2.6-17.18,4.52-25.66,7.09a42.39,42.39,0,0,0-20,12.5,2.54,2.54,0,0,0-.42,3.08c1.39,3.36,2.72,6.76,3.78,10.23A249.23,249.23,0,0,1,108,365.26q3.22,22.14,5.78,44.35c1.21,10.69,2,21.43,2.76,32.16,1,13.52,2,27.05,2.47,40.6a209.24,209.24,0,0,1-.65,28.22c-1.09,10.82-3.36,21.54-5.13,32.3-1,6.08-2.06,12.2-.28,18.29a19.37,19.37,0,0,1,.34,8.09,53.13,53.13,0,0,0-.11,10.92c.2,2.46,1.58,3.34,4,2.88C121.59,582.22,126,581.1,130.42,580.07Zm-35.85-263c-.84,1.06-1.36,1.66-1.81,2.31-8.91,12.54-15.05,26.29-20.25,40.43-7,18.92-10.61,38.57-14.8,58.1-3.16,14.74-6.11,29.52-11.33,43.82a153.64,153.64,0,0,0-9.25,51.4c-.16,14.08.79,28.18,1.27,42.26.18,5.08.61,10.15.59,15.22s.07,10.27-2.34,15.15a7.46,7.46,0,0,0,.78,7.87,4.35,4.35,0,0,1,.08,5.25c-.6,1-1.09,2.62-.63,3.53a20.18,20.18,0,0,1,1.91,7.73c.22,2.7,1.7,3.37,4.46,2.44.75-.25,1.47-.55,2.2-.84a38.78,38.78,0,0,1,28-.78,35.94,35.94,0,0,0,4.1,1.25c3,.63,4.32-.23,4.27-3.08s-.39-5.86-.69-8.78,0-5.31,2.41-7.34c1.67-1.39,1.53-3.16.84-5a36.51,36.51,0,0,1-2-6.32A80.12,80.12,0,0,1,83,552.37a274.88,274.88,0,0,0,5-36.76c.4-6,.25-12.12,1.6-17.95a257.81,257.81,0,0,1,8-27c5.1-14.55,10.68-29,16-43.44a6.45,6.45,0,0,0,.44-2.73c-.59-6.59-1.1-13.19-1.94-19.75-2-15.06-3.83-30.12-6.19-45.12a207.54,207.54,0,0,0-9.07-36.9C96.21,321,95.45,319.27,94.57,317.08Zm250.11.39-.95.12c-1.4,4.06-3,8.07-4.18,12.18a252.65,252.65,0,0,0-8.35,39.3c-2.36,18.23-4.32,36.51-6.39,54.77a9,9,0,0,0,.48,3.92c5.51,15.06,10.87,30.18,16.73,45.12a132.92,132.92,0,0,1,8.82,42.7,218.81,218.81,0,0,0,2.89,25.89c1.78,10.57,3.89,21,3.59,31.84-.15,5.16.19,10.22-3,14.84a3.38,3.38,0,0,0,.63,4.64c2.65,2.28,2.89,5,2.5,8.1a68.74,68.74,0,0,0-.62,7.58c-.06,3.69,1.19,4.52,5.09,3.57a30.35,30.35,0,0,0,3.07-1,38.17,38.17,0,0,1,25.74-.22c1.9.64,3.76,1.36,5.64,2a2.12,2.12,0,0,0,3-1.2,18.67,18.67,0,0,0,.66-3.11A18.06,18.06,0,0,1,401.2,604c1-2,1.13-3.67-.2-5.46a3.45,3.45,0,0,1,0-4.48c2.26-3.06,2-6.17.65-9.53a18.82,18.82,0,0,1-1.63-7c0-9.68.06-19.37.51-29,.62-13.42,1.64-26.81.85-40.26A166.43,166.43,0,0,0,395.79,473c-2.53-9-6.13-17.85-8.34-27-4.8-19.88-8.9-39.91-13.51-59.83-4.76-20.55-12-40.32-22.83-58.85C349.14,324,346.83,320.76,344.68,317.47ZM218.88,584.35v-.49c7.05,0,14.12.17,21.17,0,19.64-.56,39.28-1.28,58.91-1.94,1.94-.07,3.88-.2,5.83-.23a1.92,1.92,0,0,0,2.18-1.74c.86-4.81,1.7-9.62,2.67-14.41.34-1.68-.31-2.39-1.83-3.26a91.42,91.42,0,0,1-11.69-7.47c-9-7.19-14.57-16.61-18.68-26.82-5-12.33-7.57-25.22-10.7-38-.75-3.07-.71-3.05-4.08-3.06-7.42,0-14.84.07-22.25-.16-9-.29-17.95-1.12-26.94-1.26-10.29-.17-20.59.15-30.89.25-2.44,0-4.9.14-7.34,0a2.39,2.39,0,0,0-2.87,2.22c-.68,3.21-1.51,6.4-2.29,9.59-2.86,11.8-5.6,23.64-10.79,34.82-6,13-14.88,23.61-28.79,30.06a2.3,2.3,0,0,0-1.5,2.77c.67,4,1.17,8,2.11,11.85,1.18,4.95-.23,4.55,6.38,4.77,9.86.33,19.72.54,29.58.84Zm-.61-266.44c-3.09-5.68-5.82-10.61-8.45-15.57a34.14,34.14,0,0,0-8.66-10.62,95.15,95.15,0,0,1-10.46-10.1c-7.67-8.64-12.4-18.48-12.57-29.86a112.44,112.44,0,0,1,3.92-31.57c2.36-8.61,4.51-17.29,7.34-25.77,3-9.1,9.22-15.66,19.73-17.83a50.63,50.63,0,0,1,20.15-.05c6.72,1.31,12.27,4.46,15.82,10a37.82,37.82,0,0,1,5,10.16c4.11,15.08,9.2,29.94,10.29,45.64.85,12.14-.69,23.61-8.12,34a89.2,89.2,0,0,1-16.53,17.11,14.82,14.82,0,0,0-3.42,3.57c-2.65,4.36-5.09,8.83-7.61,13.26l-4.09,7.19a10.9,10.9,0,0,0,1.72.12c3.29-.38,6.61-.59,9.84-1.21,18.25-3.46,31.34-12.87,38.34-29.12a5.93,5.93,0,0,0,0-2.81c-.2-1.82-1-3.73-.62-5.44a46,46,0,0,1,3-8.95c4.66-10.61,7.3-21.57,6.39-33.06-.4-5.05-1.28-10.08-2.14-15.08a230.88,230.88,0,0,0-10.29-40.34c-3.3-9-8.71-16.56-17.24-22-12.32-7.82-26-9.83-40.46-7.5-16.36,2.64-28.58,10.71-35.36,25a79.16,79.16,0,0,0-5.28,14.83q-4.37,17.77-8,35.7a63.86,63.86,0,0,0,2,33.7c1.73,5.09,4.06,10,5.71,15.13a11.37,11.37,0,0,1,.3,6.79,7.11,7.11,0,0,0,.42,5.88c7.06,14.61,19.25,23.36,35.88,26.91C209.05,316.87,213.42,317.22,218.27,317.91Zm1.15-141.47,0,.44c-1.37,0-2.74,0-4.11,0-10.72.47-18.76,4.88-23.15,14.13a68.57,68.57,0,0,0-3.86,11c-3.85,13.77-8.1,27.45-8.9,41.79-.46,8.11.06,16,3.41,23.62,4.17,9.44,11.31,16.77,19.15,23.7a27.62,27.62,0,0,0,12.57,6.71c6.54,1.5,12-1.29,17.73-2.92a1.36,1.36,0,0,0,.49-.38c4.48-4.15,9.22-8.09,13.38-12.5,8.77-9.26,13.65-20.06,13.36-32.56a112,112,0,0,0-3.45-27c-2.59-9.58-5-19.22-8.18-28.65-2.61-7.77-8-13.64-16.91-15.79C227.17,177.16,223.25,177,219.42,176.44ZM320.93,611.57a14.84,14.84,0,0,0,.3-1.58c.29-5.34.56-10.68.85-16,.15-2.6.4-5.2.44-7.8,0-.65-.48-1.77-1-1.89-4.1-1-8.24-1.9-12.39-2.75-.44-.09-1,.25-1.5.42a8.72,8.72,0,0,1-2.45.85c-7.26.21-14.54.25-21.81.5-17.33.58-34.67,1.72-52,1.76-20.59.05-41.17-.82-61.75-1.31q-17.82-.42-35.63-.93a13.24,13.24,0,0,1-2.82-.59c-.75-.19-1.55-.72-2.21-.59-3.59.71-7.11,1.71-10.72,2.31-1.89.32-2.31,1.07-2.21,2.68.38,5.74.62,11.48,1,17.21.15,2.44.4,4.87.63,7.74,3.42-3.09,7.25-3.31,11.22-3.07,4.52.28,9,.52,13.57.78,6,.35,12.08.54,18.1,1.07a152.52,152.52,0,0,0,26.52-.19c8.95-.78,17.92-1.55,26.89-2.08,11.26-.66,22.41,1.06,33.61,1.7,8.26.47,16.54,1.15,24.79.91,12.72-.38,25.42-1.47,38.13-2.22C314.22,608.26,317.84,608.57,320.93,611.57Zm-12.28,5.83.06.59c3.1-.48,6.27-.74,9.3-1.5,2.79-.7,3.32-3.12,1.12-4.88a7.88,7.88,0,0,0-4.19-1.78c-3.93-.13-7.88.14-11.82.3-7.19.29-14.43.2-21.55,1-12.12,1.4-24.11.59-36.17-.38-9.45-.76-18.94-1.72-28.41-1.64-9.68.08-19.36,1.31-29,2-8,.6-15.91,1.44-23.91.54-2.78-.31-5.58-.54-8.38-.7-9.47-.54-18.95-1.11-28.44-1.46a14.77,14.77,0,0,0-6.43,1.21,5.22,5.22,0,0,0-2.41,3.65c-.22,1.68,1.75,2.22,3.2,2.38,3.7.41,7.43.74,11.15.79,9.92.14,19.85-.09,29.77.2,16.1.45,32.2,1.34,48.31,1.78,10.79.29,21.6.27,32.4.1,7.61-.12,15.23-.64,22.83-1.16,5.73-.39,11.43-1.44,17.16-1.54C291.68,616.79,300.17,617.22,308.65,617.4ZM76.39,637.54c.1-.71.17-1.09.19-1.47.31-5.94.58-11.87.93-17.81.26-4.58.32-4.6-4.39-6.25a37.57,37.57,0,0,0-28.68,1.36,2.66,2.66,0,0,0-1.22,2.12c.28,5.13.74,10.25,1.13,15.37.18,2.37.33,4.75.53,7.5,2.89-2.7,6.09-2.58,9.48-2.3a43.13,43.13,0,0,0,8.8-.11C67.69,635.41,72.15,634.61,76.39,637.54Zm285.78-.31c6-2.24,6-2.13,12.9-1.33a48.15,48.15,0,0,0,9.22.16c3.39-.26,6.6-.41,9.27,2.11a3.93,3.93,0,0,0,.31-.71c.57-7.45,1.15-14.9,1.64-22.36a2,2,0,0,0-.92-1.56A38.27,38.27,0,0,0,376,609.9a50.65,50.65,0,0,0-13.16,2.94c-1.83.61-2.24,1.36-2.1,3,.52,6.45.88,12.91,1.3,19.37C362.11,635.89,362.13,636.53,362.17,637.23Zm-233-75c3.59-2.2,7.09-4,10.22-6.32,10-7.27,16.12-17.08,20.55-27.93,4.36-10.66,6.83-21.79,9.54-32.85.72-3,1.41-5.95,2.13-9a4.66,4.66,0,0,0-1.07-.28c-1.66,0-3.31.11-5,.2-3.22.17-3.19.18-3.73,3.08a218.44,218.44,0,0,1-9,34.22c-3.79,10.52-10.07,19.27-20,25.65C128.83,551.69,127.35,556.7,129.21,562.25Zm180.48-.31c1.67-5.94.2-10.09-4.84-13.5A46.63,46.63,0,0,1,291,534.34c-4.61-7.5-7.21-15.74-9.37-24.06-1.89-7.27-3.37-14.63-4.92-22-.35-1.67-1-2.3-2.87-2a34,34,0,0,1-4.73.31c-1.52,0-1.86.66-1.54,1.92,3.14,12.56,5.65,25.27,10.32,37.46,4.05,10.58,9.67,20.29,18.75,28A49.62,49.62,0,0,0,309.69,561.94Zm59.4,74.38a27.1,27.1,0,0,0-5.43,1.82c-2.09,1.15-1.78,2.9.59,3.58a18.15,18.15,0,0,0,5.7.54c3.94-.18,7.86-.84,11.79-.87,2.69,0,5.38.86,8.09,1,1.14,0,2.33-.85,3.49-1.31-.69-1.09-1.16-2.82-2.13-3.12a26.4,26.4,0,0,0-6.69-.73c-2.57-.09-5.16.1-7.73,0C374.56,637.07,372.36,636.7,369.09,636.32Zm-317.45,1.2-.1-.74c-1.24.28-2.74.26-3.65.92-1.11.82-2.51,2.31-2.37,3.35.21,1.65,2.23,1.43,3.76,1.28,3.56-.34,7.12-.91,10.68-.94,3,0,6,.82,9,.89a19.68,19.68,0,0,0,6.23-1c1.47-.47,1.64-1.67.37-2.84a8.27,8.27,0,0,0-6.36-1.92C63.33,636.85,57.49,637.2,51.64,637.52ZM226.76,303.91H211.88l7.05,12.72h.8Zm3.92-7-.24-.74c-7.22,3.42-14.53,4-22,.84.56,1.5,1.3,2.62,1.85,3.81a3.07,3.07,0,0,0,3.19,1.9c4-.05,8.06,0,12.09-.07a3.13,3.13,0,0,0,2.18-.89A54.51,54.51,0,0,0,230.68,297Z" stroke="#000" stroke-miterlimit="10"/><path d="M130.42,580.07c-4.47,1-8.83,2.15-13.25,3-2.37.46-3.75-.42-4-2.88a53.13,53.13,0,0,1,.11-10.92,19.37,19.37,0,0,0-.34-8.09c-1.78-6.09-.72-12.21.28-18.29,1.77-10.76,4-21.48,5.13-32.3a209.24,209.24,0,0,0,.65-28.22c-.46-13.55-1.51-27.08-2.47-40.6-.77-10.73-1.55-21.47-2.76-32.16q-2.53-22.22-5.78-44.35A249.23,249.23,0,0,0,99.76,328c-1.06-3.47-2.39-6.87-3.78-10.23a2.54,2.54,0,0,1,.42-3.08,42.39,42.39,0,0,1,20-12.5c8.48-2.57,17.19-4.49,25.66-7.09,7.71-2.37,15.23-5.26,22.83-7.93l1.63-.58c.35.69.7,1.31,1,2,7.56,16.55,21.32,25.83,40,29A67.12,67.12,0,0,0,244.16,314c12.52-4.94,21.38-13.33,26.76-24.91.31-.68.61-1.36.94-2,.05-.11.2-.18.48-.43,1.14.46,2.38.92,3.6,1.45,9.37,4.07,19.25,6.72,29.17,9.33,7.19,1.9,14.36,3.93,21.35,6.38a35.6,35.6,0,0,1,15.86,11.09,2.69,2.69,0,0,1,.52,2.29,139.21,139.21,0,0,0-9,31.32c-2.74,15.55-5.38,31.14-7.28,46.79-2.09,17.25-3.23,34.59-4.94,51.88a450.27,450.27,0,0,0-2.06,52.06c.22,13.07,2.35,25.93,4.87,38.77a152.94,152.94,0,0,1,2.1,15.68,18.25,18.25,0,0,1-.71,6.93c-1,3.28-.66,6.41-.3,9.69a46.29,46.29,0,0,1-.16,10.12c-.28,2.48-1.69,3.18-4.33,2.63-4.2-.89-8.35-1.95-12.79-3,.44-2.21,1-4.41,1.29-6.63.71-5.16,1.49-10.33,1.9-15.51.33-4.28-1.52-7.64-5.53-10.18-9.92-6.31-15.79-15.33-19.42-25.81a213.06,213.06,0,0,1-8.68-34.3c-.3-1.81-.76-2.57-3.07-2.45-8.19.44-16.4.87-24.6.75-9.27-.13-18.53-1-27.8-1.29-6-.22-11.95-.2-17.93-.15-13.25.1-26.5.28-39.75.43-3.1,0-3,.05-3.71,3-2.41,10-4.62,20.12-7.42,30.07s-7.17,19.07-15.69,26a25.45,25.45,0,0,1-4.15,3.19c-5.76,3-7,7.88-6.28,13.4.77,5.9,1.85,11.76,2.8,17.64C130.25,578.77,130.32,579.36,130.42,580.07Z" fill="#fff" stroke="#000" stroke-miterlimit="10"/><path d="M94.57,317.08c.88,2.19,1.64,3.9,2.25,5.64a207.54,207.54,0,0,1,9.07,36.9c2.36,15,4.24,30.06,6.19,45.12.84,6.56,1.35,13.16,1.94,19.75a6.45,6.45,0,0,1-.44,2.73c-5.33,14.48-10.91,28.89-16,43.44a257.81,257.81,0,0,0-8,27c-1.35,5.83-1.2,11.95-1.6,17.95a274.88,274.88,0,0,1-5,36.76,80.12,80.12,0,0,0-.62,29.33,36.51,36.51,0,0,0,2,6.32c.69,1.84.83,3.61-.84,5-2.44,2-2.7,4.56-2.41,7.34s.63,5.85.69,8.78-1.25,3.71-4.27,3.08a35.94,35.94,0,0,1-4.1-1.25,38.78,38.78,0,0,0-28,.78c-.73.29-1.45.59-2.2.84-2.76.93-4.24.26-4.46-2.44a20.18,20.18,0,0,0-1.91-7.73c-.46-.91,0-2.52.63-3.53a4.35,4.35,0,0,0-.08-5.25,7.46,7.46,0,0,1-.78-7.87c2.41-4.88,2.31-10,2.34-15.15s-.41-10.14-.59-15.22c-.48-14.08-1.43-28.18-1.27-42.26a153.64,153.64,0,0,1,9.25-51.4c5.22-14.3,8.17-29.08,11.33-43.82,4.19-19.53,7.84-39.18,14.8-58.1,5.2-14.14,11.34-27.89,20.25-40.43C93.21,318.74,93.73,318.14,94.57,317.08Z" fill="#fff" stroke="#000" stroke-miterlimit="10"/><path d="M344.68,317.47c2.15,3.29,4.46,6.5,6.43,9.88,10.83,18.53,18.07,38.3,22.83,58.85,4.61,19.92,8.71,39.95,13.51,59.83,2.21,9.11,5.81,17.92,8.34,27a166.43,166.43,0,0,1,5.57,35.24c.79,13.45-.23,26.84-.85,40.26-.45,9.67-.52,19.36-.51,29a18.82,18.82,0,0,0,1.63,7c1.39,3.36,1.61,6.47-.65,9.53a3.45,3.45,0,0,0,0,4.48c1.33,1.79,1.23,3.5.2,5.46a18.06,18.06,0,0,0-1.19,4.61,18.67,18.67,0,0,1-.66,3.11,2.12,2.12,0,0,1-3,1.2c-1.88-.68-3.74-1.4-5.64-2a38.17,38.17,0,0,0-25.74.22,30.35,30.35,0,0,1-3.07,1c-3.9,1-5.15.12-5.09-3.57a68.74,68.74,0,0,1,.62-7.58c.39-3.06.15-5.82-2.5-8.1a3.38,3.38,0,0,1-.63-4.64c3.18-4.62,2.84-9.68,3-14.84.3-10.79-1.81-21.27-3.59-31.84a218.81,218.81,0,0,1-2.89-25.89,132.92,132.92,0,0,0-8.82-42.7c-5.86-14.94-11.22-30.06-16.73-45.12a9,9,0,0,1-.48-3.92c2.07-18.26,4-36.54,6.39-54.77a252.65,252.65,0,0,1,8.35-39.3c1.22-4.11,2.78-8.12,4.18-12.18Z" fill="#fff" stroke="#000" stroke-miterlimit="10"/><path d="M218.88,584.35l-51.8-1.65c-9.86-.3-19.72-.51-29.58-.84-6.61-.22-5.2.18-6.38-4.77-.94-3.9-1.44-7.9-2.11-11.85a2.3,2.3,0,0,1,1.5-2.77c13.91-6.45,22.76-17.09,28.79-30.06,5.19-11.18,7.93-23,10.79-34.82.78-3.19,1.61-6.38,2.29-9.59a2.39,2.39,0,0,1,2.87-2.22c2.44.11,4.9,0,7.34,0,10.3-.1,20.6-.42,30.89-.25,9,.14,18,1,26.94,1.26,7.41.23,14.83.14,22.25.16,3.37,0,3.33,0,4.08,3.06,3.13,12.76,5.74,25.65,10.7,38,4.11,10.21,9.64,19.63,18.68,26.82a91.42,91.42,0,0,0,11.69,7.47c1.52.87,2.17,1.58,1.83,3.26-1,4.79-1.81,9.6-2.67,14.41a1.92,1.92,0,0,1-2.18,1.74c-1.95,0-3.89.16-5.83.23-19.63.66-39.27,1.38-58.91,1.94-7.05.2-14.12,0-21.17,0Z" fill="#fff" stroke="#000" stroke-miterlimit="10"/><path d="M218.27,317.91c-4.85-.69-9.22-1-13.45-1.94-16.63-3.55-28.82-12.3-35.88-26.91a7.11,7.11,0,0,1-.42-5.88,11.37,11.37,0,0,0-.3-6.79c-1.65-5.12-4-10-5.71-15.13a63.86,63.86,0,0,1-2-33.7q3.63-17.91,8-35.7A79.16,79.16,0,0,1,173.78,177c6.78-14.29,19-22.36,35.36-25,14.46-2.33,28.14-.32,40.46,7.5,8.53,5.42,13.94,13,17.24,22a230.88,230.88,0,0,1,10.29,40.34c.86,5,1.74,10,2.14,15.08.91,11.49-1.73,22.45-6.39,33.06a46,46,0,0,0-3,8.95c-.36,1.71.42,3.62.62,5.44a5.93,5.93,0,0,1,0,2.81c-7,16.25-20.09,25.66-38.34,29.12-3.23.62-6.55.83-9.84,1.21a10.9,10.9,0,0,1-1.72-.12l4.09-7.19c2.52-4.43,5-8.9,7.61-13.26a14.82,14.82,0,0,1,3.42-3.57,89.2,89.2,0,0,0,16.53-17.11c7.43-10.36,9-21.83,8.12-34-1.09-15.7-6.18-30.56-10.29-45.64a37.82,37.82,0,0,0-5-10.16c-3.55-5.5-9.1-8.65-15.82-10a50.63,50.63,0,0,0-20.15.05c-10.51,2.17-16.7,8.73-19.73,17.83-2.83,8.48-5,17.16-7.34,25.77a112.44,112.44,0,0,0-3.92,31.57c.17,11.38,4.9,21.22,12.57,29.86a95.15,95.15,0,0,0,10.46,10.1,34.14,34.14,0,0,1,8.66,10.62C212.45,307.3,215.18,312.23,218.27,317.91Z" fill="#fff" stroke="#000" stroke-miterlimit="10"/><path d="M219.42,176.44c3.83.52,7.75.72,11.48,1.62,8.88,2.15,14.3,8,16.91,15.79,3.16,9.43,5.59,19.07,8.18,28.65a112,112,0,0,1,3.45,27c.29,12.5-4.59,23.3-13.36,32.56-4.16,4.41-8.9,8.35-13.38,12.5a1.36,1.36,0,0,1-.49.38c-5.77,1.63-11.19,4.42-17.73,2.92a27.62,27.62,0,0,1-12.57-6.71c-7.84-6.93-15-14.26-19.15-23.7-3.35-7.59-3.87-15.51-3.41-23.62.8-14.34,5.05-28,8.9-41.79a68.57,68.57,0,0,1,3.86-11c4.39-9.25,12.43-13.66,23.15-14.13,1.37-.06,2.74,0,4.11,0Z" fill="#f4f2f2"/><path d="M320.93,611.57c-3.09-3-6.71-3.31-10.45-3.09-12.71.75-25.41,1.84-38.13,2.22-8.25.24-16.53-.44-24.79-.91-11.2-.64-22.35-2.36-33.61-1.7-9,.53-17.94,1.3-26.89,2.08a152.52,152.52,0,0,1-26.52.19c-6-.53-12.06-.72-18.1-1.07-4.52-.26-9.05-.5-13.57-.78-4-.24-7.8,0-11.22,3.07-.23-2.87-.48-5.3-.63-7.74-.34-5.73-.58-11.47-1-17.21-.1-1.61.32-2.36,2.21-2.68,3.61-.6,7.13-1.6,10.72-2.31.66-.13,1.46.4,2.21.59a13.24,13.24,0,0,0,2.82.59q17.82.51,35.63.93c20.58.49,41.16,1.36,61.75,1.31,17.33,0,34.67-1.18,52-1.76,7.27-.25,14.55-.29,21.81-.5a8.72,8.72,0,0,0,2.45-.85c.5-.17,1.06-.51,1.5-.42,4.15.85,8.29,1.72,12.39,2.75.49.12,1,1.24,1,1.89,0,2.6-.29,5.2-.44,7.8-.29,5.34-.56,10.68-.85,16A14.84,14.84,0,0,1,320.93,611.57Z" fill="#fff" stroke="#000" stroke-miterlimit="10"/><path d="M308.65,617.4c-8.48-.18-17-.61-25.45-.45-5.73.1-11.43,1.15-17.16,1.54-7.6.52-15.22,1-22.83,1.16-10.8.17-21.61.19-32.4-.1-16.11-.44-32.21-1.33-48.31-1.78-9.92-.29-19.85-.06-29.77-.2-3.72-.05-7.45-.38-11.15-.79-1.45-.16-3.42-.7-3.2-2.38a5.22,5.22,0,0,1,2.41-3.65,14.77,14.77,0,0,1,6.43-1.21c9.49.35,19,.92,28.44,1.46,2.8.16,5.6.39,8.38.7,8,.9,16,.06,23.91-.54,9.68-.72,19.36-1.95,29-2,9.47-.08,19,.88,28.41,1.64,12.06,1,24,1.78,36.17.38,7.12-.82,14.36-.73,21.55-1,3.94-.16,7.89-.43,11.82-.3a7.88,7.88,0,0,1,4.19,1.78c2.2,1.76,1.67,4.18-1.12,4.88-3,.76-6.2,1-9.3,1.5Z" fill="#fff" stroke="#000" stroke-miterlimit="10"/><path d="M76.39,637.54c-4.24-2.93-8.7-2.13-13.23-1.59a43.13,43.13,0,0,1-8.8.11c-3.39-.28-6.59-.4-9.48,2.3-.2-2.75-.35-5.13-.53-7.5-.39-5.12-.85-10.24-1.13-15.37a2.66,2.66,0,0,1,1.22-2.12A37.57,37.57,0,0,1,73.12,612c4.71,1.65,4.65,1.67,4.39,6.25-.35,5.94-.62,11.87-.93,17.81C76.56,636.45,76.49,636.83,76.39,637.54Z" fill="#fff" stroke="#000" stroke-miterlimit="10"/><path d="M362.17,637.23c0-.7-.06-1.34-.1-2-.42-6.46-.78-12.92-1.3-19.37-.14-1.67.27-2.42,2.1-3A50.65,50.65,0,0,1,376,609.9a38.27,38.27,0,0,1,18.56,3.64,2,2,0,0,1,.92,1.56c-.49,7.46-1.07,14.91-1.64,22.36a3.93,3.93,0,0,1-.31.71c-2.67-2.52-5.88-2.37-9.27-2.11a48.15,48.15,0,0,1-9.22-.16C368.19,635.1,368.2,635,362.17,637.23Z" fill="#fff" stroke="#000" stroke-miterlimit="10"/><path d="M129.21,562.25c-1.86-5.55-.38-10.56,3.71-13.2,9.93-6.38,16.21-15.13,20-25.65a218.44,218.44,0,0,0,9-34.22c.54-2.9.51-2.91,3.73-3.08,1.65-.09,3.3-.16,5-.2a4.66,4.66,0,0,1,1.07.28c-.72,3-1.41,6-2.13,9-2.71,11.06-5.18,22.19-9.54,32.85-4.43,10.85-10.53,20.66-20.55,27.93C136.3,558.21,132.8,560.05,129.21,562.25Z" fill="#fff" stroke="#000" stroke-miterlimit="10"/><path d="M309.69,561.94a49.62,49.62,0,0,1-13.08-8c-9.08-7.67-14.7-17.38-18.75-28-4.67-12.19-7.18-24.9-10.32-37.46-.32-1.26,0-1.9,1.54-1.92a34,34,0,0,0,4.73-.31c1.83-.27,2.52.36,2.87,2,1.55,7.34,3,14.7,4.92,22,2.16,8.32,4.76,16.56,9.37,24.06a46.63,46.63,0,0,0,13.88,14.1C309.89,551.85,311.36,556,309.69,561.94Z" fill="#fff" stroke="#000" stroke-miterlimit="10"/><path d="M369.09,636.32c3.27.38,5.47.75,7.68.86,2.57.12,5.16-.07,7.73,0a26.4,26.4,0,0,1,6.69.73c1,.3,1.44,2,2.13,3.12-1.16.46-2.35,1.36-3.49,1.31-2.71-.11-5.4-1-8.09-1-3.93,0-7.85.69-11.79.87a18.15,18.15,0,0,1-5.7-.54c-2.37-.68-2.68-2.43-.59-3.58A27.1,27.1,0,0,1,369.09,636.32Z" fill="#fff" stroke="#000" stroke-miterlimit="10"/><path d="M51.64,637.52c5.85-.32,11.69-.67,17.54-1a8.27,8.27,0,0,1,6.36,1.92c1.27,1.17,1.1,2.37-.37,2.84a19.68,19.68,0,0,1-6.23,1c-3-.07-6-.91-9-.89-3.56,0-7.12.6-10.68.94-1.53.15-3.55.37-3.76-1.28-.14-1,1.26-2.53,2.37-3.35.91-.66,2.41-.64,3.65-.92Z" fill="#fff" stroke="#000" stroke-miterlimit="10"/><path d="M226.76,303.91l-7,12.71h-.8l-7.05-12.72Z" fill="#fff" stroke="#000" stroke-miterlimit="10"/><path d="M230.68,297a54.51,54.51,0,0,1-3,4.85,3.13,3.13,0,0,1-2.18.89c-4,.09-8.06,0-12.09.07a3.07,3.07,0,0,1-3.19-1.9c-.55-1.19-1.29-2.31-1.85-3.81,7.49,3.18,14.8,2.58,22-.84Z" fill="#fff" stroke="#000" stroke-miterlimit="10"/><g style="isolation:isolate"><line x1="112.83" y1="349.78" x2="325.03" y2="349.78" fill="none" stroke="red" stroke-miterlimit="10" stroke-width="2"/><path d="M105.58,349.78a36.24,36.24,0,0,1,10.26,5.7l-2.06-5.7,2.06-5.71A36.51,36.51,0,0,1,105.58,349.78Z" fill="red"/><path d="M332.27,349.78a36.32,36.32,0,0,0-10.25,5.7l2.06-5.7L322,344.07A36.6,36.6,0,0,0,332.27,349.78Z" fill="red"/></g><g style="isolation:isolate"><line x1="149.87" y1="297.97" x2="149.87" y2="602.96" fill="none" stroke="red" stroke-miterlimit="10" stroke-width="2"/><path d="M149.87,290.73A36.51,36.51,0,0,1,144.16,301l5.71-2.07,5.7,2.07A36.24,36.24,0,0,1,149.87,290.73Z" fill="red"/><path d="M149.87,610.21A36.51,36.51,0,0,0,144.16,600l5.71,2.06,5.7-2.06A36.24,36.24,0,0,0,149.87,610.21Z" fill="red"/></g><path d="M185.77,339.19v0a6.69,6.69,0,0,1,6.87-6.81,6.8,6.8,0,0,1,5.19,2L196,336.5a4.86,4.86,0,0,0-3.36-1.49,3.91,3.91,0,0,0-3.82,4.11v0a3.91,3.91,0,0,0,3.82,4.14,4.77,4.77,0,0,0,3.46-1.54l1.84,1.86a6.72,6.72,0,0,1-5.4,2.35A6.65,6.65,0,0,1,185.77,339.19Z" fill="red"/><path d="M200.7,332.57h2.9v5.21H209v-5.21h2.89v13.17H209v-5.29H203.6v5.29h-2.9Z" fill="red"/><path d="M215.47,332.57h9.93v2.58h-7.05v2.67h6.21v2.57h-6.21v2.77h7.15v2.58h-10Z" fill="red"/><path d="M227.64,343.82l1.71-2.05a6,6,0,0,0,3.93,1.6c1.19,0,1.9-.47,1.9-1.24v0c0-.74-.45-1.11-2.65-1.68-2.65-.67-4.36-1.41-4.36-4v0c0-2.39,1.92-4,4.61-4a7.64,7.64,0,0,1,4.89,1.67l-1.51,2.19a6.15,6.15,0,0,0-3.42-1.3c-1.11,0-1.69.51-1.69,1.15v0c0,.87.56,1.15,2.84,1.73,2.67.7,4.17,1.66,4.17,4v0c0,2.62-2,4.09-4.83,4.09A8.38,8.38,0,0,1,227.64,343.82Z" fill="red"/><path d="M243.84,335.24h-4v-2.67h10.91v2.67h-4v10.5h-2.89Z" fill="red"/><path d="M167.2,381.55v2.9H156.67V391H154v-9.47Z" fill="red"/><path d="M167.2,393.67v9.93h-2.58v-7.06H162v6.21h-2.58v-6.21h-2.76v7.15H154v-10Z" fill="red"/><path d="M167.2,406.74v2.67l-8.11,6.17h8.11v2.86H154V416l8.37-6.38H154v-2.86Z" fill="red"/><path d="M160.58,421.49h0a6.76,6.76,0,0,1,6.81,6.9,7.2,7.2,0,0,1-1.81,5.17l-2.2-1.82a4.84,4.84,0,0,0,1.33-3.44,4,4,0,0,0-4.1-3.78h0a3.94,3.94,0,0,0-4.18,4,4.59,4.59,0,0,0,.79,2.73h1.88v-2.91h2.5V434h-5.72a8.6,8.6,0,0,1-2.08-5.63A6.58,6.58,0,0,1,160.58,421.49Z" fill="red"/><path d="M164.53,440.17v-4h2.67v10.91h-2.67v-4H154v-2.89Z" fill="red"/><path d="M167.2,449.76v2.9H162V458h5.21v2.9H154V458h5.29v-5.34H154v-2.9Z" fill="red"/><g style="isolation:isolate"><line x1="342.45" y1="321.79" x2="342.45" y2="633.11" fill="none" stroke="red" stroke-miterlimit="10" stroke-width="2"/><path d="M342.45,314.55a36,36,0,0,1-5.71,10.26l5.71-2.07,5.71,2.07A36,36,0,0,1,342.45,314.55Z" fill="red"/><path d="M342.45,640.35a36.1,36.1,0,0,0-5.71-10.25l5.71,2.06,5.71-2.06A36.1,36.1,0,0,0,342.45,640.35Z" fill="red"/></g><path d="M348.77,361.53l2.06,1.72a6,6,0,0,0-1.6,3.93c0,1.18.47,1.9,1.24,1.9h0c.73,0,1.11-.45,1.67-2.65.68-2.66,1.41-4.37,4-4.37h0c2.39,0,4,1.92,4,4.61a7.62,7.62,0,0,1-1.67,4.89l-2.18-1.5a6.18,6.18,0,0,0,1.29-3.43c0-1.11-.5-1.69-1.14-1.69h0c-.87,0-1.15.56-1.73,2.84-.7,2.67-1.66,4.18-3.95,4.18h0c-2.62,0-4.08-2-4.08-4.84A8.39,8.39,0,0,1,348.77,361.53Z" fill="red"/><path d="M360,375v2.89H349.49v6.57h-2.63V375Z" fill="red"/><path d="M360,387.06V397h-2.58v-7.05h-2.67v6.21H352.2v-6.21h-2.77v7.15h-2.57v-10Z" fill="red"/><path d="M360,400.13v9.94h-2.58V403h-2.67v6.21H352.2V403h-2.77v7.15h-2.57v-10Z" fill="red"/><path d="M360,412.08v3.2l-9.28,3.44,9.28,3.44v3.12L346.76,420V417.4Z" fill="red"/><path d="M360,427.78v9.94h-2.58v-7.06h-2.67v6.21H352.2v-6.21h-2.77v7.15h-2.57v-10Z" fill="red"/><path d="M348.77,440l2.06,1.72a6,6,0,0,0-1.6,3.93c0,1.18.47,1.9,1.24,1.9h0c.73,0,1.11-.45,1.67-2.65.68-2.66,1.41-4.37,4-4.37h0c2.39,0,4,1.92,4,4.61a7.62,7.62,0,0,1-1.67,4.89l-2.18-1.5a6.18,6.18,0,0,0,1.29-3.43c0-1.11-.5-1.69-1.14-1.69h0c-.87,0-1.15.56-1.73,2.84-.7,2.67-1.66,4.18-3.95,4.18h0c-2.62,0-4.08-2-4.08-4.84A8.39,8.39,0,0,1,348.77,440Z" fill="red"/><line x1="284.43" y1="39.48" x2="284.43" y2="101.79" stroke="#fff" stroke-miterlimit="10" stroke-width="3"/><path d="M221,40,194.83,62.91,169.1,40l-8.83,9.9-.81-.71A38.42,38.42,0,0,0,133.73,40H126.1l-.1.14V40l-18.56,16.7V78.35H126V55.75l9.07-.08a17.76,17.76,0,0,1,12.22,4.55,14,14,0,0,1,5.11,10.83A14.22,14.22,0,0,1,148,81.37a14.79,14.79,0,0,1-10.88,4.4H77.74V78.17H102V63.28H77.74V55.86h24L119.3,40.14H77.74L59.18,56.84v44.08l18.56,0H102v0h36.19a32.75,32.75,0,0,0,18.37-5.17v5.19H173v-36l21.78,17.64L216.18,65v35.9h16.45V40Z" fill="#fff"/><polygon points="35.59 77.85 35.59 92.27 35.59 100.92 54.62 100.92 54.62 82.39 54.62 60.73 35.59 77.85" fill="#fff"/><polygon points="255.1 97.79 247.69 90.36 247.69 90.35 255.1 84.11 250.46 79.49 235.78 79.49 235.78 84.11 248.56 84.11 241.14 90.34 241.73 90.95 247.04 96.27 235.78 96.27 235.78 100.89 255.1 100.89 255.1 97.79" fill="#fff"/><path d="M240.57,40v4h-4.82V40Z" fill="#fff"/><path d="M240.54,57.6h-4.79V54a8.48,8.48,0,0,1,2.74-6.43A9.22,9.22,0,0,1,245.1,45,9,9,0,0,1,252,48.06a10.19,10.19,0,0,1,2.86,7.23v6.1l-4.91-4.9V55.05a5,5,0,0,0-1.39-3.49,4.41,4.41,0,0,0-3.4-1.53,4.68,4.68,0,0,0-3.22,1.23,4,4,0,0,0-1.37,3.07Z" fill="#fff"/><path d="M245.36,78a9.15,9.15,0,0,1-7.2-2.9,10.52,10.52,0,0,1,0-13.79,10.36,10.36,0,0,1,14.4,0,10,10,0,0,1,2.6,6.91,9,9,0,0,1-1.93,6.17,10.73,10.73,0,0,1-3.71,2.89A11,11,0,0,1,245.36,78Zm0-14.66a4.47,4.47,0,0,0-3.51,1.42,5.12,5.12,0,0,0,0,6.74,5.11,5.11,0,0,0,7.07,0,5.18,5.18,0,0,0,0-6.74A4.45,4.45,0,0,0,245.36,63.38Z" fill="#fff"/><circle cx="45.1" cy="48.75" r="8.73" fill="#fff"/><path d="M317.33,59.63h5.52v9.93H333V59.63h5.51V84.71H333V74.65H322.85V84.71h-5.52Z" fill="#fff"/><path d="M344.35,72.25v-.08a13,13,0,0,1,13.37-13C365.46,59.21,371,65,371,72.1v.07a13,13,0,0,1-13.36,13C349.91,85.14,344.35,79.38,344.35,72.25Zm20.89,0v-.08a7.62,7.62,0,0,0-7.59-7.88,7.5,7.5,0,0,0-7.53,7.81v.07a7.63,7.63,0,0,0,7.6,7.89A7.5,7.5,0,0,0,365.24,72.25Z" fill="#fff"/><path d="M375.71,72.25v-.08a13,13,0,0,1,13.36-13c7.74,0,13.29,5.76,13.29,12.89v.07a13,13,0,0,1-13.36,13C381.26,85.14,375.71,79.38,375.71,72.25Zm20.89,0v-.08a7.63,7.63,0,0,0-7.6-7.88,7.5,7.5,0,0,0-7.52,7.81v.07a7.62,7.62,0,0,0,7.59,7.89A7.51,7.51,0,0,0,396.6,72.25Z" fill="#fff"/><path d="M408.17,59.63H418c7.89,0,13.33,5.41,13.33,12.47v.07c0,7.06-5.44,12.54-13.33,12.54h-9.78Zm5.52,5V79.73H418a7.14,7.14,0,0,0,7.56-7.48v-.08A7.2,7.2,0,0,0,418,64.61Z" fill="#fff"/><path d="M437.34,59.63h5.52V84.71h-5.52Z" fill="#fff"/><path d="M450,59.63h18.91v4.91H455.51v5.09h11.82v4.91H455.51v5.27h13.61v4.9H450Z" fill="#fff"/><path d="M484.86,81.06l3.26-3.91a11.48,11.48,0,0,0,7.49,3c2.25,0,3.61-.9,3.61-2.37v-.07c0-1.39-.86-2.11-5.05-3.19-5.05-1.28-8.31-2.68-8.31-7.66v-.07c0-4.55,3.65-7.56,8.78-7.56A14.51,14.51,0,0,1,504,62.46l-2.86,4.16a11.77,11.77,0,0,0-6.52-2.47c-2.12,0-3.23,1-3.23,2.18v.08c0,1.64,1.08,2.18,5.41,3.29,5.09,1.33,8,3.15,8,7.53v.07c0,5-3.8,7.77-9.21,7.77A15.94,15.94,0,0,1,484.86,81.06Z" fill="#fff"/><path d="M510.66,59.63h5.51V84.71h-5.51Z" fill="#fff"/><path d="M522.59,80.52l13.79-16H523V59.63h20.46v4.2l-13.8,16h13.8v4.83H522.59Z" fill="#fff"/><path d="M549.61,59.63h18.92v4.91H555.09v5.09h11.82v4.91H555.09v5.27h13.62v4.9h-19.1Z" fill="#fff"/><path d="M585.05,72.25v-.08a12.73,12.73,0,0,1,13.07-13A13,13,0,0,1,608,63.07l-3.51,4.05a9.26,9.26,0,0,0-6.41-2.83c-4.23,0-7.27,3.51-7.27,7.81v.07c0,4.3,3,7.89,7.27,7.89,2.87,0,4.62-1.15,6.59-2.94l3.51,3.55a12.83,12.83,0,0,1-10.28,4.47A12.65,12.65,0,0,1,585.05,72.25Z" fill="#fff"/><path d="M613.5,59.63H619v9.93h10.17V59.63h5.52V84.71h-5.52V74.65H619V84.71H613.5Z" fill="#fff"/><path d="M650.23,59.46h5.09l10.74,25.25H660.3L658,79.09H647.4l-2.3,5.62h-5.62ZM656,74.22l-3.33-8.14-3.33,8.14Z" fill="#fff"/><path d="M670.83,59.63H682.3c3.19,0,5.66.9,7.31,2.55a7.91,7.91,0,0,1,2.15,5.73V68a7.8,7.8,0,0,1-5.38,7.78l6.13,8.95h-6.45l-5.37-8h-4.34v8h-5.52Zm11.11,12.19c2.69,0,4.23-1.44,4.23-3.55V68.2c0-2.37-1.65-3.59-4.34-3.59h-5.48v7.21Z" fill="#fff"/><path d="M703.48,64.72h-7.63V59.63h20.78v5.09H709v20h-5.52Z" fill="#fff"/></svg>